<svg xmlns="http://www.w3.org/2000/svg" width="710" height="710" fill="none">
  <circle cx="355" cy="355" r="355" fill="url(#a)" transform="rotate(90 355 355)"/>
  <path fill="#000" d="M253.02 154.941c7.054 0 13.157 1.008 18.308 3.024 5.151 1.903 9.63 4.535 13.438 7.894v23.516c-2.688-2.016-5.487-3.975-8.399-5.879-2.911-1.904-6.215-3.471-9.91-4.703-3.583-1.232-7.839-1.848-12.766-1.848-6.718 0-12.821 1.624-18.308 4.871-5.487 3.248-9.854 7.615-13.102 13.102-3.247 5.487-4.871 11.758-4.871 18.812 0 6.943 1.624 13.214 4.871 18.813 3.248 5.487 7.615 9.854 13.102 13.102 5.487 3.135 11.59 4.703 18.308 4.703 7.503 0 13.774-1.12 18.813-3.36 5.151-2.351 9.798-5.207 13.941-8.566v22.676c-3.807 3.471-8.566 6.27-14.277 8.398-5.711 2.016-12.094 3.024-19.148 3.024-8.063 0-15.678-1.4-22.844-4.2-7.167-2.911-13.494-6.942-18.981-12.093-5.487-5.263-9.798-11.478-12.933-18.645-3.136-7.167-4.703-15.117-4.703-23.852 0-8.734 1.567-16.684 4.703-23.851 3.135-7.167 7.446-13.326 12.933-18.477 5.487-5.263 11.814-9.294 18.981-12.093 7.166-2.912 14.781-4.368 22.844-4.368Zm108.38 1.68L413.806 270h-27.379l-8.566-20.996h-44.512L324.783 270h-27.379l52.406-113.379h11.59Zm-5.711 38.129-14.11 34.434h28.219l-14.109-34.434ZM248.484 297.461c5.263 0 10.414.728 15.454 2.184 5.039 1.455 9.574 3.695 13.605 6.718 4.143 3.024 7.391 6.831 9.742 11.422 2.464 4.479 3.695 9.854 3.695 16.125 0 6.607-1.679 12.318-5.039 17.133-3.247 4.703-7.558 8.398-12.933 11.086-5.375 2.575-11.198 4.087-17.469 4.535L296.02 410h-30.739l-39.136-46.023V410h-23.348V297.461h45.687Zm-22.339 21.836v28.387c2.687.895 5.654 1.623 8.902 2.183 3.359.448 6.719.672 10.078.672 6.719 0 12.038-1.344 15.957-4.031 4.031-2.8 6.047-6.719 6.047-11.758 0-5.487-2.128-9.406-6.383-11.758-4.143-2.463-9.238-3.695-15.285-3.695h-19.316Zm134.294-22.676L412.845 410h-27.379l-8.566-20.996h-44.512L323.822 410h-27.379l52.406-113.379h11.59Zm-5.711 38.129-14.109 34.434h28.218l-14.109-34.434Zm181.245-38.129V410h-23.348v-68.531l-28.89 31.578h-6.719l-29.227-31.578V410h-23.347V296.621h7.894l48.039 50.055 47.703-50.055h7.895ZM243.225 438.793c8.429 0 15.778 1.351 22.046 4.053 6.269 2.593 11.132 6.214 14.59 10.861 3.567 4.647 5.35 9.997 5.35 16.049 0 5.404-1.459 10.213-4.377 14.428-2.81 4.214-6.376 7.457-10.699 9.726 3.242.865 6.376 2.324 9.402 4.377 3.026 1.945 5.512 4.593 7.457 7.943 1.945 3.243 2.918 7.403 2.918 12.483 0 6.052-1.837 11.618-5.512 16.697-3.674 4.972-8.808 8.97-15.4 11.996-6.592 3.026-14.266 4.539-23.02 4.539-4.755 0-9.888-.216-15.4-.648-5.512-.324-10.753-.811-15.725-1.459-4.971-.757-9.186-1.513-12.644-2.27V442.846c6.052-1.297 12.59-2.27 19.615-2.918 7.025-.757 14.158-1.135 21.399-1.135Zm0 20.588c-6.917 0-13.077.54-18.481 1.621v26.262h20.264c5.512 0 9.834-1.351 12.969-4.053 3.242-2.702 4.863-6.16 4.863-10.375 0-4.323-1.945-7.619-5.836-9.889-3.783-2.377-8.376-3.566-13.779-3.566Zm-18.481 70.355c3.026.757 6.485 1.297 10.375 1.621 3.999.217 7.187.325 9.565.325 6.268 0 11.401-1.243 15.4-3.729 4.107-2.486 6.16-5.998 6.16-10.537 0-4.539-2.107-7.889-6.322-10.051-4.215-2.269-9.294-3.404-15.238-3.404h-19.94v25.775Zm137.307-89.16L412.629 550h-26.424l-8.267-20.264h-42.959L326.711 550h-26.424l50.578-109.424h11.186Zm-5.512 36.799-13.617 33.232h27.234l-13.617-33.232Z"/>
  <circle cx="355" cy="355" r="348" stroke="url(#b)" stroke-width="14"/>
  <defs>
    <linearGradient id="a" x1="0" x2="710" y1="355" y2="355" gradientUnits="userSpaceOnUse">
      <stop stop-color="#fff" stop-opacity=".9"/>
      <stop offset="1" stop-color="#FAFAFA"/>
    </linearGradient>
    <linearGradient id="b" x1="355" x2="355" y1="0" y2="710" gradientUnits="userSpaceOnUse">
      <stop stop-color="#FFAD51"/>
      <stop offset="1" stop-color="#FEA949"/>
    </linearGradient>
  </defs>
</svg>
