<svg xmlns="http://www.w3.org/2000/svg" width="133.33333" height="33.33333" version="1.0" viewBox="0 0 100 25">
  <path d="M7 6.2c-1.2 3.5-3.3 9.1-4.6 12.5L.1 25h5c3.1 0 5.1-.5 5.4-1.3 3.3-9.4 5.2-13.4 7.3-15.4 2.5-2.3 6.6-3.1 7.7-1.4.3.5-.8 4.7-2.5 9.2-1.6 4.6-3 8.4-3 8.6 0 .2 2.2.3 4.9.3h4.9l2.3-6.7C34.6 10.7 38.5 6 42.4 6c3.3 0 3.3 1.8.1 10.4-1.4 3.7-2.5 7.1-2.5 7.7 0 .6 1.9.9 4.7.7l4.7-.3 3.2-8.5c3.9-10.2 4-11.4 1.4-14-2.5-2.5-8.1-2.6-13.6-.1-3.9 1.8-4.1 1.8-6.4-.1-2.9-2.3-8.7-2.1-13.9.5-3 1.5-3.3 1.5-5.2-.4C11.4-1.6 9.5-.6 7 6.2zM66 1.5c-7.7 3.5-9.4 8.3-3.9 11.3C72.2 18.3 71.8 21 61 21c-4.9 0-6.9.4-7.3 1.4-.8 2 1.4 2.6 9.4 2.6 14.8 0 22.3-8.2 12.4-13.6-6-3.4-6.8-4.3-5.4-6.1 1-1.1 3-1.4 8.1-1.1 5.1.2 6.9 0 7.3-1.1.8-2.1.1-2.4-8.2-2.8C71.7.1 68.5.4 66 1.5zM92 .9c-1.4.4-2.6 1.3-2.8 2.2-.2 1.1.7 1.3 4.5 1 4.4-.3 6.2-1.3 6.3-3.4 0-.9-4.5-.8-8 .2zM91 6.7c-3.4.6-3.5.7-6.9 10.1l-3 8.3 5.1-.3 5.1-.3 3.3-9.3C98.3 5 98.5 5.4 91 6.7z"/>
</svg>
