<svg xmlns="http://www.w3.org/2000/svg" width="600" height="400">
  <defs>
    <clipPath id="a">
      <path d="M-94.8125 186.38396c-7.01737-.0255-14.25063.2594-22.43749.90625-9.40071 1.70984-15.15954 7.81789-17.59375 16.9375l3.65625 44.5c.92818 2.69541 2.28829 4.72748 4.25 6.59375l24.56249 23.6875c2.72072 1.80905 4.90347 2.21875 6.90625 2.21875 2.00278 0 4.21678-.4097 6.9375-2.21875l24.5625-23.6875c1.96171-1.86627 3.32182-3.89834 4.25-6.59375l3.65625-44.5c-2.43421-9.11961-8.22429-15.22766-17.625-16.9375-7.30615-.54508-14.10763-.88081-21.125-.90625zm-99.71874 76.71875c-9.11961 2.43421-15.22766 8.19304-16.9375 17.59375-1.29369 16.37374-1.09016 28.95019 0 43.5625 1.70984 9.40071 7.81789 15.19079 16.9375 17.625l44.5-3.65625c2.69541-.92818 4.72748-2.28829 6.59375-4.25l23.6875-24.5625c1.80905-2.72072 2.21875-4.93472 2.21875-6.9375 0-2.00278-.4097-4.18553-2.21875-6.90625l-23.6875-24.5625c-1.86627-1.96171-3.89834-3.32182-6.59375-4.25l-44.5-3.65625zm197.56249 0-44.5 3.65625c-2.69541.92818-4.72748 2.28829-6.59375 4.25l-23.6875 24.5625c-1.80905 2.72072-2.21875 4.93472-2.21875 6.9375 0 2.00278.4097 4.18553 2.21875 6.90625l23.6875 24.5625c1.86627 1.96171 3.89834 3.32182 6.59375 4.25l44.5 3.65625c9.11961-2.43421 15.22766-8.19304 16.9375-17.59375 1.29369-16.37374 1.09016-28.95019 0-43.5625-1.70984-9.40071-7.81789-15.19079-16.9375-17.625zm-98.5 60.90625c-2.00278 0-4.18553.4097-6.90625 2.21875l-24.56249 23.6875c-1.96171 1.86627-3.32182 3.89834-4.25 6.59375l-3.65625 44.5c2.43421 9.11961 8.19304 15.22766 17.59375 16.9375 16.37373 1.29369 28.95018 1.09016 43.56249 0 9.40071-1.70984 15.19079-7.81789 17.625-16.9375l-3.65625-44.5c-.92818-2.69541-2.28829-4.72748-4.25-6.59375l-24.5625-23.6875c-2.72072-1.80905-4.93472-2.21875-6.9375-2.21875z" style="color:#000;fill:#37abc8;fill-opacity:1;fill-rule:nonzero;stroke:none;stroke-width:2;marker:none;visibility:visible;display:inline;overflow:visible;enable-background:accumulate"/>
    </clipPath>
  </defs>
  <g style="fill:#ccc">
    <path d="M98.96124 39.66193c20.0999-11.09583 43.74174-13.1921 67.57032-3.68565v15.42514H98.96124zM501.03874 39.66193c-20.09989-11.09583-43.74174-13.1921-67.57031-3.68565v15.42514h67.57031z" style="color:#000;fill:#ccc;fill-opacity:1;fill-rule:nonzero;stroke:#000;stroke-width:1.2000000500000001;stroke-linecap:butt;stroke-linejoin:miter;stroke-miterlimit:4;stroke-opacity:1;stroke-dasharray:none;stroke-dashoffset:0;marker:none;visibility:visible;display:inline;overflow:visible;enable-background:accumulate"/>
    <path d="M135.17536 37.68543c-15.55539-.0442-30.76705 2.95454-41.97209 9.1254-6.63855 13.43858-24.06798 31.41091-31.27004 60.35428-25.70578 85.95043-32.81272 158.57024-36.32245 202.14445 0 33.54855 27.18791 60.74846 60.7365 60.74846 27.10353 0 48.89489-15.7845 57.40405-43.32181l24.85598-71.37881c3.69721-5.8797 12.74174-8.2975 18.4897-8.93431H412.903c5.74795.63681 14.79248 3.05461 18.4897 8.93431l24.85597 71.37881c8.50916 27.53731 30.30051 43.32181 57.40405 43.32181 33.54861 0 60.7365-27.19991 60.7365-60.74846-3.50973-43.57421-10.61665-116.19402-36.32245-202.14445-7.20206-28.94337-24.63149-46.9157-31.27004-60.35428-11.20504-6.17086-26.4167-9.16956-41.97209-9.1254-15.55535.0442-31.46204 3.13115-44.03843 9.1254H179.2138c-12.5764-5.99425-28.4831-9.08125-44.03844-9.1254z" style="color:#000;fill:#ccc;fill-opacity:1;fill-rule:nonzero;stroke:#000;stroke-width:1.2000000500000001;stroke-linecap:butt;stroke-linejoin:miter;stroke-miterlimit:4;stroke-opacity:1;stroke-dasharray:none;stroke-dashoffset:0;marker:none;visibility:visible;display:inline;overflow:visible;enable-background:accumulate"/>
    <path d="M135.17537 37.68543c-15.55539-.0442-30.76705 2.95454-41.97209 9.1254-6.63855 13.43858-24.06798 31.41091-31.27004 60.35428-21.43569 71.67286-29.93985 134.07956-34.20832 178.10068-.15848 19.17537 16.43375 35.33255 51.59915 44.7551 19.54242 5.23637 44.19361 8.70113 64.42727-3.28468l24.85598-71.37881c3.69721-5.8797 12.74174-8.2975 18.4897-8.93431h225.80599c5.74795.63681 14.79248 3.05461 18.4897 8.93431l24.85597 71.37881c20.23367 11.98581 44.88484 8.52105 64.42727 3.28468 35.16541-9.42255 51.75764-25.57973 51.59913-44.7551-4.2685-44.02112-12.77262-106.42782-34.2083-178.10068-7.20206-28.94337-24.63149-46.9157-31.27004-60.35428-11.20504-6.17086-26.4167-9.16956-41.97209-9.1254-15.55535.0442-31.46204 3.13114-44.03843 9.1254H179.21381c-12.5764-5.99426-28.4831-9.08125-44.03844-9.1254z" style="color:#000;fill:#ccc;fill-opacity:1;fill-rule:nonzero;stroke:#000;stroke-width:1.2000000500000001;stroke-linecap:butt;stroke-linejoin:miter;stroke-miterlimit:4;stroke-opacity:1;stroke-dasharray:none;stroke-dashoffset:0;marker:none;visibility:visible;display:inline;overflow:visible;enable-background:accumulate;opacity:.5"/>
  </g>
  <g style="fill:#ccc">
    <path d="M217.49511 45.22225c-1.96668 0-7.44127.44578-7.44127 5.2913v82.80462c0 6.16423 7.0794 11.60271 13.24363 11.60271h157.05511c6.16423 0 11.55243-5.29713 11.55243-11.46136V50.51355c0-4.84552-5.47458-5.2913-7.44126-5.2913H234.69482z" style="color:#000;fill:#ccc;fill-opacity:1;fill-rule:nonzero;stroke:#000;stroke-width:1.2000000500000001;stroke-linecap:butt;stroke-linejoin:miter;stroke-miterlimit:4;stroke-opacity:1;stroke-dasharray:none;stroke-dashoffset:0;marker:none;visibility:visible;display:inline;overflow:visible;enable-background:accumulate"/>
    <path d="M217.49511 45.22225c-.88458 0-2.47891.0929-3.96549.63304v84.38612c0 6.01229 4.76145 10.84537 10.6901 10.84537h153.50747c5.92865 0 10.70205-4.83308 10.70205-10.84537V45.85529c-1.48658-.54016-3.08091-.63304-3.96549-.63304H217.49511z" style="opacity:.5;color:#000;fill:#ccc;fill-opacity:1;fill-rule:nonzero;stroke:#000;stroke-width:1.2000000500000001;stroke-linecap:butt;stroke-linejoin:miter;stroke-miterlimit:4;stroke-opacity:1;stroke-dasharray:none;stroke-dashoffset:0;marker:none;visibility:visible;display:inline;overflow:visible;enable-background:accumulate"/>
    <path d="M215.36903 61.23948v1.89914h1.88719v-1.89914h-1.88719zm4.21632 0v1.89914h1.89914v-1.89914h-1.89914zm4.21632 0v1.89914h1.89914v-1.89914h-1.89914zm4.22826 0v1.89914h1.89914v-1.89914h-1.89914zm4.21632 0v1.89914h1.89914v-1.89914h-1.89914zm4.22827 0v1.89914h1.89913v-1.89914h-1.89913zm4.22826 0v1.89914h1.88719v-1.89914h-1.88719zm4.21632 0v1.89914h1.89913v-1.89914h-1.89913zm4.22826 0v1.89914h1.88719v-1.89914h-1.88719zm4.21632 0v1.89914h1.89914v-1.89914h-1.89914zm4.22827 0v1.89914h1.89913v-1.89914h-1.89913zm4.21632 0v1.89914h1.89913v-1.89914h-1.89913zm4.22826 0v1.89914h1.89913v-1.89914h-1.89913zm4.21632 0v1.89914h1.89913v-1.89914h-1.89913zm4.22826 0v1.89914h1.89914v-1.89914h-1.89914zm4.22827 0v1.89914h1.88719v-1.89914h-1.88719zm4.21632 0v1.89914h1.89913v-1.89914h-1.89913zm4.22826 0v1.89914h1.88719v-1.89914h-1.88719zm4.21632 0v1.89914h1.89913v-1.89914h-1.89913zm4.22826 0v1.89914h1.89914v-1.89914h-1.89914zm4.21632 0v1.89914h1.89914v-1.89914h-1.89914zm4.22826 0v1.89914h1.89914v-1.89914h-1.89914zm4.21632 0v1.89914h1.89914v-1.89914h-1.89914zm4.22827 0v1.89914h1.89913v-1.89914h-1.89913zm4.22826 0v1.89914h1.88719v-1.89914h-1.88719zm4.21632 0v1.89914h1.89914v-1.89914h-1.89914zm4.22826 0v1.89914h1.8872v-1.89914h-1.8872zm4.21632 0v1.89914h1.89914v-1.89914h-1.89914zm4.22827 0v1.89914h1.89913v-1.89914h-1.89913zm4.21632 0v1.89914h1.89913v-1.89914h-1.89913zm4.22826 0v1.89914h1.89914v-1.89914h-1.89914zm4.21632 0v1.89914h1.89914v-1.89914h-1.89914zm4.22826 0v1.89914h1.89914v-1.89914h-1.89914zm4.22827 0v1.89914h1.88719v-1.89914h-1.88719zm4.21632 0v1.89914h1.89913v-1.89914h-1.89913zm4.22826 0v1.89914h1.88719v-1.89914h-1.88719zm4.21632 0v1.89914h1.89913v-1.89914h-1.89913zm4.22826 0v1.89914h1.89914v-1.89914h-1.89914zm4.21632 0v1.89914h1.89914v-1.89914h-1.89914zm4.22827 0v1.89914h1.89913v-1.89914h-1.89913zm4.21632 0v1.89914h1.91107v-1.89914h-1.91107zm-168.90361 4.22827v1.89913h1.88719v-1.89913h-1.88719zm4.21632 0v1.89913h1.89914v-1.89913h-1.89914zm4.21632 0v1.89913h1.89914v-1.89913h-1.89914zm4.22826 0v1.89913h1.89914v-1.89913h-1.89914zm4.21632 0v1.89913h1.89914v-1.89913h-1.89914zm4.22827 0v1.89913h1.89913v-1.89913h-1.89913zm4.22826 0v1.89913h1.88719v-1.89913h-1.88719zm4.21632 0v1.89913h1.89913v-1.89913h-1.89913zm4.22826 0v1.89913h1.88719v-1.89913h-1.88719zm4.21632 0v1.89913h1.89914v-1.89913h-1.89914zm4.22827 0v1.89913h1.89913v-1.89913h-1.89913zm4.21632 0v1.89913h1.89913v-1.89913h-1.89913zm4.22826 0v1.89913h1.89913v-1.89913h-1.89913zm4.21632 0v1.89913h1.89913v-1.89913h-1.89913zm4.22826 0v1.89913h1.89914v-1.89913h-1.89914zm4.22827 0v1.89913h1.88719v-1.89913h-1.88719zm4.21632 0v1.89913h1.89913v-1.89913h-1.89913zm4.22826 0v1.89913h1.88719v-1.89913h-1.88719zm4.21632 0v1.89913h1.89913v-1.89913h-1.89913zm4.22826 0v1.89913h1.89914v-1.89913h-1.89914zm4.21632 0v1.89913h1.89914v-1.89913h-1.89914zm4.22826 0v1.89913h1.89914v-1.89913h-1.89914zm4.21632 0v1.89913h1.89914v-1.89913h-1.89914zm4.22827 0v1.89913h1.89913v-1.89913h-1.89913zm4.22826 0v1.89913h1.88719v-1.89913h-1.88719zm4.21632 0v1.89913h1.89914v-1.89913h-1.89914zm4.22826 0v1.89913h1.8872v-1.89913h-1.8872zm4.21632 0v1.89913h1.89914v-1.89913h-1.89914zm4.22827 0v1.89913h1.89913v-1.89913h-1.89913zm4.21632 0v1.89913h1.89913v-1.89913h-1.89913zm4.22826 0v1.89913h1.89914v-1.89913h-1.89914zm4.21632 0v1.89913h1.89914v-1.89913h-1.89914zm4.22826 0v1.89913h1.89914v-1.89913h-1.89914zm4.22827 0v1.89913h1.88719v-1.89913h-1.88719zm4.21632 0v1.89913h1.89913v-1.89913h-1.89913zm4.22826 0v1.89913h1.88719v-1.89913h-1.88719zm4.21632 0v1.89913h1.89913v-1.89913h-1.89913zm4.22826 0v1.89913h1.89914v-1.89913h-1.89914zm4.21632 0v1.89913h1.89914v-1.89913h-1.89914zm4.22827 0v1.89913h1.89913v-1.89913h-1.89913zm4.21632 0v1.89913h1.91107v-1.89913h-1.91107zM215.36903 69.696v1.8872h1.88719V69.696h-1.88719zm4.21632 0v1.8872h1.89914V69.696h-1.89914zm4.21632 0v1.8872h1.89914V69.696h-1.89914zm4.22826 0v1.8872h1.89914V69.696h-1.89914zm4.21632 0v1.8872h1.89914V69.696h-1.89914zm4.22827 0v1.8872h1.89913V69.696h-1.89913zm4.22826 0v1.8872h1.88719V69.696h-1.88719zm4.21632 0v1.8872h1.89913V69.696h-1.89913zm4.22826 0v1.8872h1.88719V69.696h-1.88719zm4.21632 0v1.8872h1.89914V69.696h-1.89914zm4.22827 0v1.8872h1.89913V69.696h-1.89913zm4.21632 0v1.8872h1.89913V69.696h-1.89913zm4.22826 0v1.8872h1.89913V69.696h-1.89913zm4.21632 0v1.8872h1.89913V69.696h-1.89913zm4.22826 0v1.8872h1.89914V69.696h-1.89914zm4.22827 0v1.8872h1.88719V69.696h-1.88719zm4.21632 0v1.8872h1.89913V69.696h-1.89913zm4.22826 0v1.8872h1.88719V69.696h-1.88719zm4.21632 0v1.8872h1.89913V69.696h-1.89913zm4.22826 0v1.8872h1.89914V69.696h-1.89914zm4.21632 0v1.8872h1.89914V69.696h-1.89914zm4.22826 0v1.8872h1.89914V69.696h-1.89914zm4.21632 0v1.8872h1.89914V69.696h-1.89914zm4.22827 0v1.8872h1.89913V69.696h-1.89913zm4.22826 0v1.8872h1.88719V69.696h-1.88719zm4.21632 0v1.8872h1.89914V69.696h-1.89914zm4.22826 0v1.8872h1.8872V69.696h-1.8872zm4.21632 0v1.8872h1.89914V69.696h-1.89914zm4.22827 0v1.8872h1.89913V69.696h-1.89913zm4.21632 0v1.8872h1.89913V69.696h-1.89913zm4.22826 0v1.8872h1.89914V69.696h-1.89914zm4.21632 0v1.8872h1.89914V69.696h-1.89914zm4.22826 0v1.8872h1.89914V69.696h-1.89914zm4.22827 0v1.8872h1.88719V69.696h-1.88719zm4.21632 0v1.8872h1.89913V69.696h-1.89913zm4.22826 0v1.8872h1.88719V69.696h-1.88719zm4.21632 0v1.8872h1.89913V69.696h-1.89913zm4.22826 0v1.8872h1.89914V69.696h-1.89914zm4.21632 0v1.8872h1.89914V69.696h-1.89914zm4.22827 0v1.8872h1.89913V69.696h-1.89913zm4.21632 0v1.8872h1.91107V69.696h-1.91107zm-168.90361 4.21632v1.89913h1.88719v-1.89913h-1.88719zm4.21632 0v1.89913h1.89914v-1.89913h-1.89914zm4.21632 0v1.89913h1.89914v-1.89913h-1.89914zm4.22826 0v1.89913h1.89914v-1.89913h-1.89914zm4.21632 0v1.89913h1.89914v-1.89913h-1.89914zm4.22827 0v1.89913h1.89913v-1.89913h-1.89913zm4.22826 0v1.89913h1.88719v-1.89913h-1.88719zm4.21632 0v1.89913h1.89913v-1.89913h-1.89913zm4.22826 0v1.89913h1.88719v-1.89913h-1.88719zm4.21632 0v1.89913h1.89914v-1.89913h-1.89914zm4.22827 0v1.89913h1.89913v-1.89913h-1.89913zm4.21632 0v1.89913h1.89913v-1.89913h-1.89913zm4.22826 0v1.89913h1.89913v-1.89913h-1.89913zm4.21632 0v1.89913h1.89913v-1.89913h-1.89913zm4.22826 0v1.89913h1.89914v-1.89913h-1.89914zm4.22827 0v1.89913h1.88719v-1.89913h-1.88719zm4.21632 0v1.89913h1.89913v-1.89913h-1.89913zm4.22826 0v1.89913h1.88719v-1.89913h-1.88719zm4.21632 0v1.89913h1.89913v-1.89913h-1.89913zm4.22826 0v1.89913h1.89914v-1.89913h-1.89914zm4.21632 0v1.89913h1.89914v-1.89913h-1.89914zm4.22826 0v1.89913h1.89914v-1.89913h-1.89914zm4.21632 0v1.89913h1.89914v-1.89913h-1.89914zm4.22827 0v1.89913h1.89913v-1.89913h-1.89913zm4.22826 0v1.89913h1.88719v-1.89913h-1.88719zm4.21632 0v1.89913h1.89914v-1.89913h-1.89914zm4.22826 0v1.89913h1.8872v-1.89913h-1.8872zm4.21632 0v1.89913h1.89914v-1.89913h-1.89914zm4.22827 0v1.89913h1.89913v-1.89913h-1.89913zm4.21632 0v1.89913h1.89913v-1.89913h-1.89913zm4.22826 0v1.89913h1.89914v-1.89913h-1.89914zm4.21632 0v1.89913h1.89914v-1.89913h-1.89914zm4.22826 0v1.89913h1.89914v-1.89913h-1.89914zm4.22827 0v1.89913h1.88719v-1.89913h-1.88719zm4.21632 0v1.89913h1.89913v-1.89913h-1.89913zm4.22826 0v1.89913h1.88719v-1.89913h-1.88719zm4.21632 0v1.89913h1.89913v-1.89913h-1.89913zm4.22826 0v1.89913h1.89914v-1.89913h-1.89914zm4.21632 0v1.89913h1.89914v-1.89913h-1.89914zm4.22827 0v1.89913h1.89913v-1.89913h-1.89913zm4.21632 0v1.89913h1.91107v-1.89913h-1.91107zm-168.90361 4.22826v1.8872h1.88719v-1.8872h-1.88719zm4.21632 0v1.8872h1.89914v-1.8872h-1.89914zm4.21632 0v1.8872h1.89914v-1.8872h-1.89914zm4.22826 0v1.8872h1.89914v-1.8872h-1.89914zm4.21632 0v1.8872h1.89914v-1.8872h-1.89914zm4.22827 0v1.8872h1.89913v-1.8872h-1.89913zm4.22826 0v1.8872h1.88719v-1.8872h-1.88719zm4.21632 0v1.8872h1.89913v-1.8872h-1.89913zm4.22826 0v1.8872h1.88719v-1.8872h-1.88719zm4.21632 0v1.8872h1.89914v-1.8872h-1.89914zm4.22827 0v1.8872h1.89913v-1.8872h-1.89913zm4.21632 0v1.8872h1.89913v-1.8872h-1.89913zm4.22826 0v1.8872h1.89913v-1.8872h-1.89913zm4.21632 0v1.8872h1.89913v-1.8872h-1.89913zm4.22826 0v1.8872h1.89914v-1.8872h-1.89914zm4.22827 0v1.8872h1.88719v-1.8872h-1.88719zm4.21632 0v1.8872h1.89913v-1.8872h-1.89913zm4.22826 0v1.8872h1.88719v-1.8872h-1.88719zm4.21632 0v1.8872h1.89913v-1.8872h-1.89913zm4.22826 0v1.8872h1.89914v-1.8872h-1.89914zm4.21632 0v1.8872h1.89914v-1.8872h-1.89914zm4.22826 0v1.8872h1.89914v-1.8872h-1.89914zm4.21632 0v1.8872h1.89914v-1.8872h-1.89914zm4.22827 0v1.8872h1.89913v-1.8872h-1.89913zm4.22826 0v1.8872h1.88719v-1.8872h-1.88719zm4.21632 0v1.8872h1.89914v-1.8872h-1.89914zm4.22826 0v1.8872h1.8872v-1.8872h-1.8872zm4.21632 0v1.8872h1.89914v-1.8872h-1.89914zm4.22827 0v1.8872h1.89913v-1.8872h-1.89913zm4.21632 0v1.8872h1.89913v-1.8872h-1.89913zm4.22826 0v1.8872h1.89914v-1.8872h-1.89914zm4.21632 0v1.8872h1.89914v-1.8872h-1.89914zm4.22826 0v1.8872h1.89914v-1.8872h-1.89914zm4.22827 0v1.8872h1.88719v-1.8872h-1.88719zm4.21632 0v1.8872h1.89913v-1.8872h-1.89913zm4.22826 0v1.8872h1.88719v-1.8872h-1.88719zm4.21632 0v1.8872h1.89913v-1.8872h-1.89913zm4.22826 0v1.8872h1.89914v-1.8872h-1.89914zm4.21632 0v1.8872h1.89914v-1.8872h-1.89914zm4.22827 0v1.8872h1.89913v-1.8872h-1.89913zm4.21632 0v1.8872h1.91107v-1.8872h-1.91107zm-168.90361 4.21632v1.89914h1.88719V82.3569h-1.88719zm4.21632 0v1.89914h1.89914V82.3569h-1.89914zm4.21632 0v1.89914h1.89914V82.3569h-1.89914zm4.22826 0v1.89914h1.89914V82.3569h-1.89914zm4.21632 0v1.89914h1.89914V82.3569h-1.89914zm4.22827 0v1.89914h1.89913V82.3569h-1.89913zm4.22826 0v1.89914h1.88719V82.3569h-1.88719zm4.21632 0v1.89914h1.89913V82.3569h-1.89913zm4.22826 0v1.89914h1.88719V82.3569h-1.88719zm4.21632 0v1.89914h1.89914V82.3569h-1.89914zm4.22827 0v1.89914h1.89913V82.3569h-1.89913zm4.21632 0v1.89914h1.89913V82.3569h-1.89913zm4.22826 0v1.89914h1.89913V82.3569h-1.89913zm4.21632 0v1.89914h1.89913V82.3569h-1.89913zm4.22826 0v1.89914h1.89914V82.3569h-1.89914zm4.22827 0v1.89914h1.88719V82.3569h-1.88719zm4.21632 0v1.89914h1.89913V82.3569h-1.89913zm4.22826 0v1.89914h1.88719V82.3569h-1.88719zm4.21632 0v1.89914h1.89913V82.3569h-1.89913zm4.22826 0v1.89914h1.89914V82.3569h-1.89914zm4.21632 0v1.89914h1.89914V82.3569h-1.89914zm4.22826 0v1.89914h1.89914V82.3569h-1.89914zm4.21632 0v1.89914h1.89914V82.3569h-1.89914zm4.22827 0v1.89914h1.89913V82.3569h-1.89913zm4.22826 0v1.89914h1.88719V82.3569h-1.88719zm4.21632 0v1.89914h1.89914V82.3569h-1.89914zm4.22826 0v1.89914h1.8872V82.3569h-1.8872zm4.21632 0v1.89914h1.89914V82.3569h-1.89914zm4.22827 0v1.89914h1.89913V82.3569h-1.89913zm4.21632 0v1.89914h1.89913V82.3569h-1.89913zm4.22826 0v1.89914h1.89914V82.3569h-1.89914zm4.21632 0v1.89914h1.89914V82.3569h-1.89914zm4.22826 0v1.89914h1.89914V82.3569h-1.89914zm4.22827 0v1.89914h1.88719V82.3569h-1.88719zm4.21632 0v1.89914h1.89913V82.3569h-1.89913zm4.22826 0v1.89914h1.88719V82.3569h-1.88719zm4.21632 0v1.89914h1.89913V82.3569h-1.89913zm4.22826 0v1.89914h1.89914V82.3569h-1.89914zm4.21632 0v1.89914h1.89914V82.3569h-1.89914zm4.22827 0v1.89914h1.89913V82.3569h-1.89913zm4.21632 0v1.89914h1.91107V82.3569h-1.91107zm-168.90361 4.22827v1.89913h1.88719v-1.89913h-1.88719zm4.21632 0v1.89913h1.89914v-1.89913h-1.89914zm4.21632 0v1.89913h1.89914v-1.89913h-1.89914zm4.22826 0v1.89913h1.89914v-1.89913h-1.89914zm4.21632 0v1.89913h1.89914v-1.89913h-1.89914zm4.22827 0v1.89913h1.89913v-1.89913h-1.89913zm4.22826 0v1.89913h1.88719v-1.89913h-1.88719zm4.21632 0v1.89913h1.89913v-1.89913h-1.89913zm4.22826 0v1.89913h1.88719v-1.89913h-1.88719zm4.21632 0v1.89913h1.89914v-1.89913h-1.89914zm4.22827 0v1.89913h1.89913v-1.89913h-1.89913zm4.21632 0v1.89913h1.89913v-1.89913h-1.89913zm4.22826 0v1.89913h1.89913v-1.89913h-1.89913zm4.21632 0v1.89913h1.89913v-1.89913h-1.89913zm4.22826 0v1.89913h1.89914v-1.89913h-1.89914zm4.22827 0v1.89913h1.88719v-1.89913h-1.88719zm4.21632 0v1.89913h1.89913v-1.89913h-1.89913zm4.22826 0v1.89913h1.88719v-1.89913h-1.88719zm4.21632 0v1.89913h1.89913v-1.89913h-1.89913zm4.22826 0v1.89913h1.89914v-1.89913h-1.89914zm4.21632 0v1.89913h1.89914v-1.89913h-1.89914zm4.22826 0v1.89913h1.89914v-1.89913h-1.89914zm4.21632 0v1.89913h1.89914v-1.89913h-1.89914zm4.22827 0v1.89913h1.89913v-1.89913h-1.89913zm4.22826 0v1.89913h1.88719v-1.89913h-1.88719zm4.21632 0v1.89913h1.89914v-1.89913h-1.89914zm4.22826 0v1.89913h1.8872v-1.89913h-1.8872zm4.21632 0v1.89913h1.89914v-1.89913h-1.89914zm4.22827 0v1.89913h1.89913v-1.89913h-1.89913zm4.21632 0v1.89913h1.89913v-1.89913h-1.89913zm4.22826 0v1.89913h1.89914v-1.89913h-1.89914zm4.21632 0v1.89913h1.89914v-1.89913h-1.89914zm4.22826 0v1.89913h1.89914v-1.89913h-1.89914zm4.22827 0v1.89913h1.88719v-1.89913h-1.88719zm4.21632 0v1.89913h1.89913v-1.89913h-1.89913zm4.22826 0v1.89913h1.88719v-1.89913h-1.88719zm4.21632 0v1.89913h1.89913v-1.89913h-1.89913zm4.22826 0v1.89913h1.89914v-1.89913h-1.89914zm4.21632 0v1.89913h1.89914v-1.89913h-1.89914zm4.22827 0v1.89913h1.89913v-1.89913h-1.89913zm4.21632 0v1.89913h1.91107v-1.89913h-1.91107zm-168.90361 4.21631v1.89914h1.88719v-1.89914h-1.88719zm4.21632 0v1.89914h1.89914v-1.89914h-1.89914zm4.21632 0v1.89914h1.89914v-1.89914h-1.89914zm4.22826 0v1.89914h1.89914v-1.89914h-1.89914zm4.21632 0v1.89914h1.89914v-1.89914h-1.89914zm4.22827 0v1.89914h1.89913v-1.89914h-1.89913zm4.22826 0v1.89914h1.88719v-1.89914h-1.88719zm4.21632 0v1.89914h1.89913v-1.89914h-1.89913zm4.22826 0v1.89914h1.88719v-1.89914h-1.88719zm4.21632 0v1.89914h1.89914v-1.89914h-1.89914zm4.22827 0v1.89914h1.89913v-1.89914h-1.89913zm4.21632 0v1.89914h1.89913v-1.89914h-1.89913zm4.22826 0v1.89914h1.89913v-1.89914h-1.89913zm4.21632 0v1.89914h1.89913v-1.89914h-1.89913zm4.22826 0v1.89914h1.89914v-1.89914h-1.89914zm4.22827 0v1.89914h1.88719v-1.89914h-1.88719zm4.21632 0v1.89914h1.89913v-1.89914h-1.89913zm4.22826 0v1.89914h1.88719v-1.89914h-1.88719zm4.21632 0v1.89914h1.89913v-1.89914h-1.89913zm4.22826 0v1.89914h1.89914v-1.89914h-1.89914zm4.21632 0v1.89914h1.89914v-1.89914h-1.89914zm4.22826 0v1.89914h1.89914v-1.89914h-1.89914zm4.21632 0v1.89914h1.89914v-1.89914h-1.89914zm4.22827 0v1.89914h1.89913v-1.89914h-1.89913zm4.22826 0v1.89914h1.88719v-1.89914h-1.88719zm4.21632 0v1.89914h1.89914v-1.89914h-1.89914zm4.22826 0v1.89914h1.8872v-1.89914h-1.8872zm4.21632 0v1.89914h1.89914v-1.89914h-1.89914zm4.22827 0v1.89914h1.89913v-1.89914h-1.89913zm4.21632 0v1.89914h1.89913v-1.89914h-1.89913zm4.22826 0v1.89914h1.89914v-1.89914h-1.89914zm4.21632 0v1.89914h1.89914v-1.89914h-1.89914zm4.22826 0v1.89914h1.89914v-1.89914h-1.89914zm4.22827 0v1.89914h1.88719v-1.89914h-1.88719zm4.21632 0v1.89914h1.89913v-1.89914h-1.89913zm4.22826 0v1.89914h1.88719v-1.89914h-1.88719zm4.21632 0v1.89914h1.89913v-1.89914h-1.89913zm4.22826 0v1.89914h1.89914v-1.89914h-1.89914zm4.21632 0v1.89914h1.89914v-1.89914h-1.89914zm4.22827 0v1.89914h1.89913v-1.89914h-1.89913zm4.21632 0v1.89914h1.91107v-1.89914h-1.91107zm-168.90361 4.22827v1.89913h1.88719v-1.89913h-1.88719zm4.21632 0v1.89913h1.89914v-1.89913h-1.89914zm4.21632 0v1.89913h1.89914v-1.89913h-1.89914zm4.22826 0v1.89913h1.89914v-1.89913h-1.89914zm4.21632 0v1.89913h1.89914v-1.89913h-1.89914zm4.22827 0v1.89913h1.89913v-1.89913h-1.89913zm4.22826 0v1.89913h1.88719v-1.89913h-1.88719zm4.21632 0v1.89913h1.89913v-1.89913h-1.89913zm4.22826 0v1.89913h1.88719v-1.89913h-1.88719zm4.21632 0v1.89913h1.89914v-1.89913h-1.89914zm4.22827 0v1.89913h1.89913v-1.89913h-1.89913zm4.21632 0v1.89913h1.89913v-1.89913h-1.89913zm4.22826 0v1.89913h1.89913v-1.89913h-1.89913zm4.21632 0v1.89913h1.89913v-1.89913h-1.89913zm4.22826 0v1.89913h1.89914v-1.89913h-1.89914zm4.22827 0v1.89913h1.88719v-1.89913h-1.88719zm4.21632 0v1.89913h1.89913v-1.89913h-1.89913zm4.22826 0v1.89913h1.88719v-1.89913h-1.88719zm4.21632 0v1.89913h1.89913v-1.89913h-1.89913zm4.22826 0v1.89913h1.89914v-1.89913h-1.89914zm4.21632 0v1.89913h1.89914v-1.89913h-1.89914zm4.22826 0v1.89913h1.89914v-1.89913h-1.89914zm4.21632 0v1.89913h1.89914v-1.89913h-1.89914zm4.22827 0v1.89913h1.89913v-1.89913h-1.89913zm4.22826 0v1.89913h1.88719v-1.89913h-1.88719zm4.21632 0v1.89913h1.89914v-1.89913h-1.89914zm4.22826 0v1.89913h1.8872v-1.89913h-1.8872zm4.21632 0v1.89913h1.89914v-1.89913h-1.89914zm4.22827 0v1.89913h1.89913v-1.89913h-1.89913zm4.21632 0v1.89913h1.89913v-1.89913h-1.89913zm4.22826 0v1.89913h1.89914v-1.89913h-1.89914zm4.21632 0v1.89913h1.89914v-1.89913h-1.89914zm4.22826 0v1.89913h1.89914v-1.89913h-1.89914zm4.22827 0v1.89913h1.88719v-1.89913h-1.88719zm4.21632 0v1.89913h1.89913v-1.89913h-1.89913zm4.22826 0v1.89913h1.88719v-1.89913h-1.88719zm4.21632 0v1.89913h1.89913v-1.89913h-1.89913zm4.22826 0v1.89913h1.89914v-1.89913h-1.89914zm4.21632 0v1.89913h1.89914v-1.89913h-1.89914zm4.22827 0v1.89913h1.89913v-1.89913h-1.89913zm4.21632 0v1.89913h1.91107v-1.89913h-1.91107zm-168.90361 4.21632v1.89913h1.88719v-1.89913h-1.88719zm4.21632 0v1.89913h1.89914v-1.89913h-1.89914zm4.21632 0v1.89913h1.89914v-1.89913h-1.89914zm4.22826 0v1.89913h1.89914v-1.89913h-1.89914zm4.21632 0v1.89913h1.89914v-1.89913h-1.89914zm4.22827 0v1.89913h1.89913v-1.89913h-1.89913zm4.22826 0v1.89913h1.88719v-1.89913h-1.88719zm4.21632 0v1.89913h1.89913v-1.89913h-1.89913zm4.22826 0v1.89913h1.88719v-1.89913h-1.88719zm4.21632 0v1.89913h1.89914v-1.89913h-1.89914zm4.22827 0v1.89913h1.89913v-1.89913h-1.89913zm4.21632 0v1.89913h1.89913v-1.89913h-1.89913zm4.22826 0v1.89913h1.89913v-1.89913h-1.89913zm4.21632 0v1.89913h1.89913v-1.89913h-1.89913zm4.22826 0v1.89913h1.89914v-1.89913h-1.89914zm4.22827 0v1.89913h1.88719v-1.89913h-1.88719zm4.21632 0v1.89913h1.89913v-1.89913h-1.89913zm4.22826 0v1.89913h1.88719v-1.89913h-1.88719zm4.21632 0v1.89913h1.89913v-1.89913h-1.89913zm4.22826 0v1.89913h1.89914v-1.89913h-1.89914zm4.21632 0v1.89913h1.89914v-1.89913h-1.89914zm4.22826 0v1.89913h1.89914v-1.89913h-1.89914zm4.21632 0v1.89913h1.89914v-1.89913h-1.89914zm4.22827 0v1.89913h1.89913v-1.89913h-1.89913zm4.22826 0v1.89913h1.88719v-1.89913h-1.88719zm4.21632 0v1.89913h1.89914v-1.89913h-1.89914zm4.22826 0v1.89913h1.8872v-1.89913h-1.8872zm4.21632 0v1.89913h1.89914v-1.89913h-1.89914zm4.22827 0v1.89913h1.89913v-1.89913h-1.89913zm4.21632 0v1.89913h1.89913v-1.89913h-1.89913zm4.22826 0v1.89913h1.89914v-1.89913h-1.89914zm4.21632 0v1.89913h1.89914v-1.89913h-1.89914zm4.22826 0v1.89913h1.89914v-1.89913h-1.89914zm4.22827 0v1.89913h1.88719v-1.89913h-1.88719zm4.21632 0v1.89913h1.89913v-1.89913h-1.89913zm4.22826 0v1.89913h1.88719v-1.89913h-1.88719zm4.21632 0v1.89913h1.89913v-1.89913h-1.89913zm4.22826 0v1.89913h1.89914v-1.89913h-1.89914zm4.21632 0v1.89913h1.89914v-1.89913h-1.89914zm4.22827 0v1.89913h1.89913v-1.89913h-1.89913zm4.21632 0v1.89913h1.91107v-1.89913h-1.91107zm-168.90361 4.22826v1.89914h1.88719v-1.89914h-1.88719zm4.21632 0v1.89914h1.89914v-1.89914h-1.89914zm4.21632 0v1.89914h1.89914v-1.89914h-1.89914zm4.22826 0v1.89914h1.89914v-1.89914h-1.89914zm4.21632 0v1.89914h1.89914v-1.89914h-1.89914zm4.22827 0v1.89914h1.89913v-1.89914h-1.89913zm4.22826 0v1.89914h1.88719v-1.89914h-1.88719zm4.21632 0v1.89914h1.89913v-1.89914h-1.89913zm4.22826 0v1.89914h1.88719v-1.89914h-1.88719zm4.21632 0v1.89914h1.89914v-1.89914h-1.89914zm4.22827 0v1.89914h1.89913v-1.89914h-1.89913zm4.21632 0v1.89914h1.89913v-1.89914h-1.89913zm4.22826 0v1.89914h1.89913v-1.89914h-1.89913zm4.21632 0v1.89914h1.89913v-1.89914h-1.89913zm4.22826 0v1.89914h1.89914v-1.89914h-1.89914zm4.22827 0v1.89914h1.88719v-1.89914h-1.88719zm4.21632 0v1.89914h1.89913v-1.89914h-1.89913zm4.22826 0v1.89914h1.88719v-1.89914h-1.88719zm4.21632 0v1.89914h1.89913v-1.89914h-1.89913zm4.22826 0v1.89914h1.89914v-1.89914h-1.89914zm4.21632 0v1.89914h1.89914v-1.89914h-1.89914zm4.22826 0v1.89914h1.89914v-1.89914h-1.89914zm4.21632 0v1.89914h1.89914v-1.89914h-1.89914zm4.22827 0v1.89914h1.89913v-1.89914h-1.89913zm4.22826 0v1.89914h1.88719v-1.89914h-1.88719zm4.21632 0v1.89914h1.89914v-1.89914h-1.89914zm4.22826 0v1.89914h1.8872v-1.89914h-1.8872zm4.21632 0v1.89914h1.89914v-1.89914h-1.89914zm4.22827 0v1.89914h1.89913v-1.89914h-1.89913zm4.21632 0v1.89914h1.89913v-1.89914h-1.89913zm4.22826 0v1.89914h1.89914v-1.89914h-1.89914zm4.21632 0v1.89914h1.89914v-1.89914h-1.89914zm4.22826 0v1.89914h1.89914v-1.89914h-1.89914zm4.22827 0v1.89914h1.88719v-1.89914h-1.88719zm4.21632 0v1.89914h1.89913v-1.89914h-1.89913zm4.22826 0v1.89914h1.88719v-1.89914h-1.88719zm4.21632 0v1.89914h1.89913v-1.89914h-1.89913zm4.22826 0v1.89914h1.89914v-1.89914h-1.89914zm4.21632 0v1.89914h1.89914v-1.89914h-1.89914zm4.22827 0v1.89914h1.89913v-1.89914h-1.89913zm4.21632 0v1.89914h1.91107v-1.89914h-1.91107zm-168.90361 4.22827v1.88719h1.88719v-1.88719h-1.88719zm4.21632 0v1.88719h1.89914v-1.88719h-1.89914zm4.21632 0v1.88719h1.89914v-1.88719h-1.89914zm4.22826 0v1.88719h1.89914v-1.88719h-1.89914zm4.21632 0v1.88719h1.89914v-1.88719h-1.89914zm4.22827 0v1.88719h1.89913v-1.88719h-1.89913zm4.22826 0v1.88719h1.88719v-1.88719h-1.88719zm4.21632 0v1.88719h1.89913v-1.88719h-1.89913zm4.22826 0v1.88719h1.88719v-1.88719h-1.88719zm4.21632 0v1.88719h1.89914v-1.88719h-1.89914zm4.22827 0v1.88719h1.89913v-1.88719h-1.89913zm4.21632 0v1.88719h1.89913v-1.88719h-1.89913zm4.22826 0v1.88719h1.89913v-1.88719h-1.89913zm4.21632 0v1.88719h1.89913v-1.88719h-1.89913zm4.22826 0v1.88719h1.89914v-1.88719h-1.89914zm4.22827 0v1.88719h1.88719v-1.88719h-1.88719zm4.21632 0v1.88719h1.89913v-1.88719h-1.89913zm4.22826 0v1.88719h1.88719v-1.88719h-1.88719zm4.21632 0v1.88719h1.89913v-1.88719h-1.89913zm4.22826 0v1.88719h1.89914v-1.88719h-1.89914zm4.21632 0v1.88719h1.89914v-1.88719h-1.89914zm4.22826 0v1.88719h1.89914v-1.88719h-1.89914zm4.21632 0v1.88719h1.89914v-1.88719h-1.89914zm4.22827 0v1.88719h1.89913v-1.88719h-1.89913zm4.22826 0v1.88719h1.88719v-1.88719h-1.88719zm4.21632 0v1.88719h1.89914v-1.88719h-1.89914zm4.22826 0v1.88719h1.8872v-1.88719h-1.8872zm4.21632 0v1.88719h1.89914v-1.88719h-1.89914zm4.22827 0v1.88719h1.89913v-1.88719h-1.89913zm4.21632 0v1.88719h1.89913v-1.88719h-1.89913zm4.22826 0v1.88719h1.89914v-1.88719h-1.89914zm4.21632 0v1.88719h1.89914v-1.88719h-1.89914zm4.22826 0v1.88719h1.89914v-1.88719h-1.89914zm4.22827 0v1.88719h1.88719v-1.88719h-1.88719zm4.21632 0v1.88719h1.89913v-1.88719h-1.89913zm4.22826 0v1.88719h1.88719v-1.88719h-1.88719zm4.21632 0v1.88719h1.89913v-1.88719h-1.89913zm4.22826 0v1.88719h1.89914v-1.88719h-1.89914zm4.21632 0v1.88719h1.89914v-1.88719h-1.89914zm4.22827 0v1.88719h1.89913v-1.88719h-1.89913zm4.21632 0v1.88719h1.91107v-1.88719h-1.91107zm-168.90361 4.21631v1.89914h1.88719v-1.89914h-1.88719zm4.21632 0v1.89914h1.89914v-1.89914h-1.89914zm4.21632 0v1.89914h1.89914v-1.89914h-1.89914zm4.22826 0v1.89914h1.89914v-1.89914h-1.89914zm4.21632 0v1.89914h1.89914v-1.89914h-1.89914zm4.22827 0v1.89914h1.89913v-1.89914h-1.89913zm4.22826 0v1.89914h1.88719v-1.89914h-1.88719zm4.21632 0v1.89914h1.89913v-1.89914h-1.89913zm4.22826 0v1.89914h1.88719v-1.89914h-1.88719zm4.21632 0v1.89914h1.89914v-1.89914h-1.89914zm4.22827 0v1.89914h1.89913v-1.89914h-1.89913zm4.21632 0v1.89914h1.89913v-1.89914h-1.89913zm4.22826 0v1.89914h1.89913v-1.89914h-1.89913zm4.21632 0v1.89914h1.89913v-1.89914h-1.89913zm4.22826 0v1.89914h1.89914v-1.89914h-1.89914zm4.22827 0v1.89914h1.88719v-1.89914h-1.88719zm4.21632 0v1.89914h1.89913v-1.89914h-1.89913zm4.22826 0v1.89914h1.88719v-1.89914h-1.88719zm4.21632 0v1.89914h1.89913v-1.89914h-1.89913zm4.22826 0v1.89914h1.89914v-1.89914h-1.89914zm4.21632 0v1.89914h1.89914v-1.89914h-1.89914zm4.22826 0v1.89914h1.89914v-1.89914h-1.89914zm4.21632 0v1.89914h1.89914v-1.89914h-1.89914zm4.22827 0v1.89914h1.89913v-1.89914h-1.89913zm4.22826 0v1.89914h1.88719v-1.89914h-1.88719zm4.21632 0v1.89914h1.89914v-1.89914h-1.89914zm4.22826 0v1.89914h1.8872v-1.89914h-1.8872zm4.21632 0v1.89914h1.89914v-1.89914h-1.89914zm4.22827 0v1.89914h1.89913v-1.89914h-1.89913zm4.21632 0v1.89914h1.89913v-1.89914h-1.89913zm4.22826 0v1.89914h1.89914v-1.89914h-1.89914zm4.21632 0v1.89914h1.89914v-1.89914h-1.89914zm4.22826 0v1.89914h1.89914v-1.89914h-1.89914zm4.22827 0v1.89914h1.88719v-1.89914h-1.88719zm4.21632 0v1.89914h1.89913v-1.89914h-1.89913zm4.22826 0v1.89914h1.88719v-1.89914h-1.88719zm4.21632 0v1.89914h1.89913v-1.89914h-1.89913zm4.22826 0v1.89914h1.89914v-1.89914h-1.89914zm4.21632 0v1.89914h1.89914v-1.89914h-1.89914zm4.22827 0v1.89914h1.89913v-1.89914h-1.89913zm4.21632 0v1.89914h1.91107v-1.89914h-1.91107zm-168.90361 4.22827v1.88719h1.88719v-1.88719h-1.88719zm4.21632 0v1.88719h1.89914v-1.88719h-1.89914zm4.21632 0v1.88719h1.89914v-1.88719h-1.89914zm4.22826 0v1.88719h1.89914v-1.88719h-1.89914zm4.21632 0v1.88719h1.89914v-1.88719h-1.89914zm4.22827 0v1.88719h1.89913v-1.88719h-1.89913zm4.22826 0v1.88719h1.88719v-1.88719h-1.88719zm4.21632 0v1.88719h1.89913v-1.88719h-1.89913zm4.22826 0v1.88719h1.88719v-1.88719h-1.88719zm4.21632 0v1.88719h1.89914v-1.88719h-1.89914zm4.22827 0v1.88719h1.89913v-1.88719h-1.89913zm4.21632 0v1.88719h1.89913v-1.88719h-1.89913zm4.22826 0v1.88719h1.89913v-1.88719h-1.89913zm4.21632 0v1.88719h1.89913v-1.88719h-1.89913zm4.22826 0v1.88719h1.89914v-1.88719h-1.89914zm4.22827 0v1.88719h1.88719v-1.88719h-1.88719zm4.21632 0v1.88719h1.89913v-1.88719h-1.89913zm4.22826 0v1.88719h1.88719v-1.88719h-1.88719zm4.21632 0v1.88719h1.89913v-1.88719h-1.89913zm4.22826 0v1.88719h1.89914v-1.88719h-1.89914zm4.21632 0v1.88719h1.89914v-1.88719h-1.89914zm4.22826 0v1.88719h1.89914v-1.88719h-1.89914zm4.21632 0v1.88719h1.89914v-1.88719h-1.89914zm4.22827 0v1.88719h1.89913v-1.88719h-1.89913zm4.22826 0v1.88719h1.88719v-1.88719h-1.88719zm4.21632 0v1.88719h1.89914v-1.88719h-1.89914zm4.22826 0v1.88719h1.8872v-1.88719h-1.8872zm4.21632 0v1.88719h1.89914v-1.88719h-1.89914zm4.22827 0v1.88719h1.89913v-1.88719h-1.89913zm4.21632 0v1.88719h1.89913v-1.88719h-1.89913zm4.22826 0v1.88719h1.89914v-1.88719h-1.89914zm4.21632 0v1.88719h1.89914v-1.88719h-1.89914zm4.22826 0v1.88719h1.89914v-1.88719h-1.89914zm4.22827 0v1.88719h1.88719v-1.88719h-1.88719zm4.21632 0v1.88719h1.89913v-1.88719h-1.89913zm4.22826 0v1.88719h1.88719v-1.88719h-1.88719zm4.21632 0v1.88719h1.89913v-1.88719h-1.89913zm4.22826 0v1.88719h1.89914v-1.88719h-1.89914zm4.21632 0v1.88719h1.89914v-1.88719h-1.89914zm4.22827 0v1.88719h1.89913v-1.88719h-1.89913zm4.21632 0v1.88719h1.91107v-1.88719h-1.91107zm-168.90361 4.21632v1.89913h1.88719v-1.89913h-1.88719zm4.21632 0v1.89913h1.89914v-1.89913h-1.89914zm4.21632 0v1.89913h1.89914v-1.89913h-1.89914zm4.22826 0v1.89913h1.89914v-1.89913h-1.89914zm4.21632 0v1.89913h1.89914v-1.89913h-1.89914zm4.22827 0v1.89913h1.89913v-1.89913h-1.89913zm4.22826 0v1.89913h1.88719v-1.89913h-1.88719zm4.21632 0v1.89913h1.89913v-1.89913h-1.89913zm4.22826 0v1.89913h1.88719v-1.89913h-1.88719zm4.21632 0v1.89913h1.89914v-1.89913h-1.89914zm4.22827 0v1.89913h1.89913v-1.89913h-1.89913zm4.21632 0v1.89913h1.89913v-1.89913h-1.89913zm4.22826 0v1.89913h1.89913v-1.89913h-1.89913zm4.21632 0v1.89913h1.89913v-1.89913h-1.89913zm4.22826 0v1.89913h1.89914v-1.89913h-1.89914zm4.22827 0v1.89913h1.88719v-1.89913h-1.88719zm4.21632 0v1.89913h1.89913v-1.89913h-1.89913zm4.22826 0v1.89913h1.88719v-1.89913h-1.88719zm4.21632 0v1.89913h1.89913v-1.89913h-1.89913zm4.22826 0v1.89913h1.89914v-1.89913h-1.89914zm4.21632 0v1.89913h1.89914v-1.89913h-1.89914zm4.22826 0v1.89913h1.89914v-1.89913h-1.89914zm4.21632 0v1.89913h1.89914v-1.89913h-1.89914zm4.22827 0v1.89913h1.89913v-1.89913h-1.89913zm4.22826 0v1.89913h1.88719v-1.89913h-1.88719zm4.21632 0v1.89913h1.89914v-1.89913h-1.89914zm4.22826 0v1.89913h1.8872v-1.89913h-1.8872zm4.21632 0v1.89913h1.89914v-1.89913h-1.89914zm4.22827 0v1.89913h1.89913v-1.89913h-1.89913zm4.21632 0v1.89913h1.89913v-1.89913h-1.89913zm4.22826 0v1.89913h1.89914v-1.89913h-1.89914zm4.21632 0v1.89913h1.89914v-1.89913h-1.89914zm4.22826 0v1.89913h1.89914v-1.89913h-1.89914zm4.22827 0v1.89913h1.88719v-1.89913h-1.88719zm4.21632 0v1.89913h1.89913v-1.89913h-1.89913zm4.22826 0v1.89913h1.88719v-1.89913h-1.88719zm4.21632 0v1.89913h1.89913v-1.89913h-1.89913zm4.22826 0v1.89913h1.89914v-1.89913h-1.89914zm4.21632 0v1.89913h1.89914v-1.89913h-1.89914zm4.22827 0v1.89913h1.89913v-1.89913h-1.89913zm4.21632 0v1.89913h1.91107v-1.89913h-1.91107zm-168.90361 4.22826v1.89914h1.88719v-1.89914h-1.88719zm4.21632 0v1.89914h1.89914v-1.89914h-1.89914zm4.21632 0v1.89914h1.89914v-1.89914h-1.89914zm4.22826 0v1.89914h1.89914v-1.89914h-1.89914zm4.21632 0v1.89914h1.89914v-1.89914h-1.89914zm4.22827 0v1.89914h1.89913v-1.89914h-1.89913zm4.22826 0v1.89914h1.88719v-1.89914h-1.88719zm4.21632 0v1.89914h1.89913v-1.89914h-1.89913zm4.22826 0v1.89914h1.88719v-1.89914h-1.88719zm4.21632 0v1.89914h1.89914v-1.89914h-1.89914zm4.22827 0v1.89914h1.89913v-1.89914h-1.89913zm4.21632 0v1.89914h1.89913v-1.89914h-1.89913zm4.22826 0v1.89914h1.89913v-1.89914h-1.89913zm4.21632 0v1.89914h1.89913v-1.89914h-1.89913zm4.22826 0v1.89914h1.89914v-1.89914h-1.89914zm4.22827 0v1.89914h1.88719v-1.89914h-1.88719zm4.21632 0v1.89914h1.89913v-1.89914h-1.89913zm4.22826 0v1.89914h1.88719v-1.89914h-1.88719zm4.21632 0v1.89914h1.89913v-1.89914h-1.89913zm4.22826 0v1.89914h1.89914v-1.89914h-1.89914zm4.21632 0v1.89914h1.89914v-1.89914h-1.89914zm4.22826 0v1.89914h1.89914v-1.89914h-1.89914zm4.21632 0v1.89914h1.89914v-1.89914h-1.89914zm4.22827 0v1.89914h1.89913v-1.89914h-1.89913zm4.22826 0v1.89914h1.88719v-1.89914h-1.88719zm4.21632 0v1.89914h1.89914v-1.89914h-1.89914zm4.22826 0v1.89914h1.8872v-1.89914h-1.8872zm4.21632 0v1.89914h1.89914v-1.89914h-1.89914zm4.22827 0v1.89914h1.89913v-1.89914h-1.89913zm4.21632 0v1.89914h1.89913v-1.89914h-1.89913zm4.22826 0v1.89914h1.89914v-1.89914h-1.89914zm4.21632 0v1.89914h1.89914v-1.89914h-1.89914zm4.22826 0v1.89914h1.89914v-1.89914h-1.89914zm4.22827 0v1.89914h1.88719v-1.89914h-1.88719zm4.21632 0v1.89914h1.89913v-1.89914h-1.89913zm4.22826 0v1.89914h1.88719v-1.89914h-1.88719zm4.21632 0v1.89914h1.89913v-1.89914h-1.89913zm4.22826 0v1.89914h1.89914v-1.89914h-1.89914zm4.21632 0v1.89914h1.89914v-1.89914h-1.89914zm4.22827 0v1.89914h1.89913v-1.89914h-1.89913zm4.21632 0v1.89914h1.91107v-1.89914h-1.91107zm-168.90361 4.21632v1.89914h1.88719v-1.89914h-1.88719zm4.21632 0v1.89914h1.89914v-1.89914h-1.89914zm4.21632 0v1.89914h1.89914v-1.89914h-1.89914zm4.22826 0v1.89914h1.89914v-1.89914h-1.89914zm4.21632 0v1.89914h1.89914v-1.89914h-1.89914zm4.22827 0v1.89914h1.89913v-1.89914h-1.89913zm4.22826 0v1.89914h1.88719v-1.89914h-1.88719zm4.21632 0v1.89914h1.89913v-1.89914h-1.89913zm4.22826 0v1.89914h1.88719v-1.89914h-1.88719zm4.21632 0v1.89914h1.89914v-1.89914h-1.89914zm4.22827 0v1.89914h1.89913v-1.89914h-1.89913zm4.21632 0v1.89914h1.89913v-1.89914h-1.89913zm4.22826 0v1.89914h1.89913v-1.89914h-1.89913zm4.21632 0v1.89914h1.89913v-1.89914h-1.89913zm4.22826 0v1.89914h1.89914v-1.89914h-1.89914zm4.22827 0v1.89914h1.88719v-1.89914h-1.88719zm4.21632 0v1.89914h1.89913v-1.89914h-1.89913zm4.22826 0v1.89914h1.88719v-1.89914h-1.88719zm4.21632 0v1.89914h1.89913v-1.89914h-1.89913zm4.22826 0v1.89914h1.89914v-1.89914h-1.89914zm4.21632 0v1.89914h1.89914v-1.89914h-1.89914zm4.22826 0v1.89914h1.89914v-1.89914h-1.89914zm4.21632 0v1.89914h1.89914v-1.89914h-1.89914zm4.22827 0v1.89914h1.89913v-1.89914h-1.89913zm4.22826 0v1.89914h1.88719v-1.89914h-1.88719zm4.21632 0v1.89914h1.89914v-1.89914h-1.89914zm4.22826 0v1.89914h1.8872v-1.89914h-1.8872zm4.21632 0v1.89914h1.89914v-1.89914h-1.89914zm4.22827 0v1.89914h1.89913v-1.89914h-1.89913zm4.21632 0v1.89914h1.89913v-1.89914h-1.89913zm4.22826 0v1.89914h1.89914v-1.89914h-1.89914zm4.21632 0v1.89914h1.89914v-1.89914h-1.89914zm4.22826 0v1.89914h1.89914v-1.89914h-1.89914zm4.22827 0v1.89914h1.88719v-1.89914h-1.88719zm4.21632 0v1.89914h1.89913v-1.89914h-1.89913zm4.22826 0v1.89914h1.88719v-1.89914h-1.88719zm4.21632 0v1.89914h1.89913v-1.89914h-1.89913zm4.22826 0v1.89914h1.89914v-1.89914h-1.89914zm4.21632 0v1.89914h1.89914v-1.89914h-1.89914zm4.22827 0v1.89914h1.89913v-1.89914h-1.89913zm4.21632 0v1.89914h1.91107v-1.89914h-1.91107zm-168.90361 4.22826v1.89914h1.88719v-1.89914h-1.88719zm4.21632 0v1.89914h1.89914v-1.89914h-1.89914zm4.21632 0v1.89914h1.89914v-1.89914h-1.89914zm4.22826 0v1.89914h1.89914v-1.89914h-1.89914zm4.21632 0v1.89914h1.89914v-1.89914h-1.89914zm4.22827 0v1.89914h1.89913v-1.89914h-1.89913zm4.22826 0v1.89914h1.88719v-1.89914h-1.88719zm4.21632 0v1.89914h1.89913v-1.89914h-1.89913zm4.22826 0v1.89914h1.88719v-1.89914h-1.88719zm4.21632 0v1.89914h1.89914v-1.89914h-1.89914zm4.22827 0v1.89914h1.89913v-1.89914h-1.89913zm4.21632 0v1.89914h1.89913v-1.89914h-1.89913zm4.22826 0v1.89914h1.89913v-1.89914h-1.89913zm4.21632 0v1.89914h1.89913v-1.89914h-1.89913zm4.22826 0v1.89914h1.89914v-1.89914h-1.89914zm4.22827 0v1.89914h1.88719v-1.89914h-1.88719zm4.21632 0v1.89914h1.89913v-1.89914h-1.89913zm4.22826 0v1.89914h1.88719v-1.89914h-1.88719zm4.21632 0v1.89914h1.89913v-1.89914h-1.89913zm4.22826 0v1.89914h1.89914v-1.89914h-1.89914zm4.21632 0v1.89914h1.89914v-1.89914h-1.89914zm4.22826 0v1.89914h1.89914v-1.89914h-1.89914zm4.21632 0v1.89914h1.89914v-1.89914h-1.89914zm4.22827 0v1.89914h1.89913v-1.89914h-1.89913zm4.22826 0v1.89914h1.88719v-1.89914h-1.88719zm4.21632 0v1.89914h1.89914v-1.89914h-1.89914zm4.22826 0v1.89914h1.8872v-1.89914h-1.8872zm4.21632 0v1.89914h1.89914v-1.89914h-1.89914zm4.22827 0v1.89914h1.89913v-1.89914h-1.89913zm4.21632 0v1.89914h1.89913v-1.89914h-1.89913zm4.22826 0v1.89914h1.89914v-1.89914h-1.89914zm4.21632 0v1.89914h1.89914v-1.89914h-1.89914zm4.22826 0v1.89914h1.89914v-1.89914h-1.89914zm4.22827 0v1.89914h1.88719v-1.89914h-1.88719zm4.21632 0v1.89914h1.89913v-1.89914h-1.89913zm4.22826 0v1.89914h1.88719v-1.89914h-1.88719zm4.21632 0v1.89914h1.89913v-1.89914h-1.89913zm4.22826 0v1.89914h1.89914v-1.89914h-1.89914zm4.21632 0v1.89914h1.89914v-1.89914h-1.89914zm4.22827 0v1.89914h1.89913v-1.89914h-1.89913zm4.21632 0v1.89914h1.91107v-1.89914h-1.91107zm-168.22279 4.21632c.3681.44093.77383.85428 1.20637 1.23026v-1.23026h-1.20637zm3.5355 0v1.89914h1.89914v-1.89914h-1.89914zm4.21632 0v1.89914h1.89914v-1.89914h-1.89914zm4.22826 0v1.89914h1.89914v-1.89914h-1.89914zm4.21632 0v1.89914h1.89914v-1.89914h-1.89914zm4.22827 0v1.89914h1.89913v-1.89914h-1.89913zm4.22826 0v1.89914h1.88719v-1.89914h-1.88719zm4.21632 0v1.89914h1.89913v-1.89914h-1.89913zm4.22826 0v1.89914h1.88719v-1.89914h-1.88719zm4.21632 0v1.89914h1.89914v-1.89914h-1.89914zm4.22827 0v1.89914h1.89913v-1.89914h-1.89913zm4.21632 0v1.89914h1.89913v-1.89914h-1.89913zm4.22826 0v1.89914h1.89913v-1.89914h-1.89913zm4.21632 0v1.89914h1.89913v-1.89914h-1.89913zm4.22826 0v1.89914h1.89914v-1.89914h-1.89914zm4.22827 0v1.89914h1.88719v-1.89914h-1.88719zm4.21632 0v1.89914h1.89913v-1.89914h-1.89913zm4.22826 0v1.89914h1.88719v-1.89914h-1.88719zm4.21632 0v1.89914h1.89913v-1.89914h-1.89913zm4.22826 0v1.89914h1.89914v-1.89914h-1.89914zm4.21632 0v1.89914h1.89914v-1.89914h-1.89914zm4.22826 0v1.89914h1.89914v-1.89914h-1.89914zm4.21632 0v1.89914h1.89914v-1.89914h-1.89914zm4.22827 0v1.89914h1.89913v-1.89914h-1.89913zm4.22826 0v1.89914h1.88719v-1.89914h-1.88719zm4.21632 0v1.89914h1.89914v-1.89914h-1.89914zm4.22826 0v1.89914h1.8872v-1.89914h-1.8872zm4.21632 0v1.89914h1.89914v-1.89914h-1.89914zm4.22827 0v1.89914h1.89913v-1.89914h-1.89913zm4.21632 0v1.89914h1.89913v-1.89914h-1.89913zm4.22826 0v1.89914h1.89914v-1.89914h-1.89914zm4.21632 0v1.89914h1.89914v-1.89914h-1.89914zm4.22826 0v1.89914h1.89914v-1.89914h-1.89914zm4.22827 0v1.89914h1.88719v-1.89914h-1.88719zm4.21632 0v1.89914h1.89913v-1.89914h-1.89913zm4.22826 0v1.89914h1.88719v-1.89914h-1.88719zm4.21632 0v1.89914h1.89913v-1.89914h-1.89913zm4.22826 0v1.89914h1.89914v-1.89914h-1.89914zm4.21632 0v1.89914h1.89914v-1.89914h-1.89914zm4.22827 0v1.89914h1.89913v-1.89914h-1.89913zm4.21632 0v1.57664c.59508-.46522 1.13886-.9968 1.62441-1.57664h-1.62441z" style="color:#000;fill:#000;fill-opacity:1;fill-rule:nonzero;stroke:none;stroke-width:3.1395866899999998;marker:none;visibility:visible;display:inline;overflow:visible;enable-background:accumulate;opacity:.5"/>
  </g>
  <g style="fill:#ccc">
    <path d="M193.39769 125.81488a63.60938 63.60938 0 1 1-127.21875 0 63.60938 63.60938 0 1 1 127.21875 0z" style="color:#000;fill:#ccc;fill-opacity:1;fill-rule:nonzero;stroke:#000;stroke-width:1.2000000500000001;stroke-linecap:butt;stroke-linejoin:miter;stroke-miterlimit:4;stroke-opacity:1;stroke-dasharray:none;stroke-dashoffset:0;marker:none;visibility:visible;display:inline;overflow:visible;enable-background:accumulate"/>
    <path d="m129.72835 68.16999 8.48241 8.46583h-16.96483zM128.3633 183.52698l8.48241-8.46582h-16.96484zM186.72338 125.22059l-8.46582 8.48241v-16.96483zM71.45507 125.22059l8.46582-8.48242V133.703z" style="color:#000;fill:#ccc;fill-opacity:1;fill-rule:nonzero;stroke:#000;stroke-width:1.2000000500000001;stroke-linecap:butt;stroke-linejoin:miter;stroke-miterlimit:4;stroke-opacity:1;stroke-dasharray:none;stroke-dashoffset:0;marker:none;visibility:visible;display:inline;overflow:visible;enable-background:accumulate"/>
    <g style="stroke-width:3.1395866899999998;stroke-miterlimit:4;stroke-dasharray:none;fill:#ccc">
      <path d="M-81.52569 336.98213c-2.00278 0-4.18552.4097-6.90625 2.21875l-24.5625 23.6875c-1.96171 1.86627-3.32182 3.89834-4.25 6.59375l-3.65625 44.5c2.43421 9.11961 8.19304 15.22766 17.59375 16.9375 16.37375 1.29369 28.9502 1.09016 43.5625 0 9.40071-1.70984 15.1908-7.81789 17.625-16.9375l-3.65625-44.5c-.92818-2.69541-2.28829-4.72748-4.25-6.59375l-24.5625-23.6875c-2.72072-1.80905-4.93471-2.21875-6.9375-2.21875zM-81.52568 294.18205c-2.00279 0-4.18553-.4097-6.90626-2.21875l-24.5625-23.6875c-1.96171-1.86627-3.32182-3.89834-4.25-6.59375l-3.65625-44.5c2.43421-9.11961 8.19304-15.22766 17.59375-16.9375 16.37375-1.29369 28.9502-1.09016 43.5625 0 9.40072 1.70984 15.1908 7.81789 17.625 16.9375l-3.65624 44.5c-.92818 2.69541-2.2883 4.72748-4.25 6.59375l-24.5625 23.6875c-2.72073 1.80905-4.93472 2.21875-6.9375 2.21875zM-60.04344 315.47152c0 2.00278.4097 4.18553 2.21875 6.90625l23.6875 24.5625c1.86627 1.96171 3.89834 3.32182 6.59375 4.25l44.5 3.65625c9.11962-2.43421 15.22767-8.19304 16.9375-17.59375 1.2937-16.37374 1.09016-28.95019 0-43.5625-1.70984-9.40071-7.81789-15.19079-16.9375-17.625l-44.5 3.65625c-2.6954.92818-4.72748 2.28829-6.59375 4.25l-23.6875 24.5625c-1.80905 2.72072-2.21875 4.93472-2.21875 6.9375zM-103.60127 315.44027c0-2.00278-.4097-4.18553-2.21875-6.90625l-23.6875-24.5625c-1.86627-1.96171-3.89834-3.32182-6.59375-4.25l-44.5-3.65625c-9.11961 2.43421-15.22766 8.19304-16.9375 17.59375-1.29369 16.37374-1.09016 28.95019 0 43.5625 1.70984 9.40071 7.81789 15.19079 16.9375 17.625l44.5-3.65625c2.69541-.92818 4.72748-2.28829 6.59375-4.25l23.6875-24.5625c1.80905-2.72072 2.21875-4.93472 2.21875-6.9375z" style="color:#000;fill:#ccc;fill-opacity:1;fill-rule:nonzero;stroke:#000;stroke-width:3.1395866899999998;stroke-miterlimit:4;stroke-opacity:1;stroke-dasharray:none;marker:none;visibility:visible;display:inline;overflow:visible;enable-background:accumulate" transform="matrix(.38222 0 0 .38222 159.51773 4.27737)"/>
    </g>
    <path d="M-43 302.61221a52.75 52.75 0 1 1-105.5 0 52.75 52.75 0 1 1 105.5 0z" clip-path="url(#a)" style="opacity:.5;color:#000;fill:#ccc;stroke:#000;stroke-width:3.1395866899999998;stroke-miterlimit:4;stroke-opacity:1;stroke-dasharray:none;marker:none;visibility:visible;display:inline;overflow:visible;enable-background:accumulate" transform="matrix(.38222 0 0 .38222 164.8411 9.23467)"/>
  </g>
  <g style="fill:#ccc">
    <path d="M534.89993 125.81488a63.60938 63.60938 0 1 1-127.21875 0 63.60938 63.60938 0 1 1 127.21875 0z" style="color:#000;fill:#ccc;fill-opacity:1;fill-rule:nonzero;stroke:#000;stroke-width:1.2000000500000001;stroke-linecap:butt;stroke-linejoin:miter;stroke-miterlimit:4;stroke-opacity:1;stroke-dasharray:none;stroke-dashoffset:0;marker:none;visibility:visible;display:inline;overflow:visible;enable-background:accumulate"/>
    <path d="M489.21234 85.07463a17.08002 17.08002 0 0 1-34.16003 0 17.08002 17.08002 0 1 1 34.16003 0zM489.21234 164.89189a17.08002 17.08002 0 0 1-34.16003 0 17.08002 17.08002 0 1 1 34.16003 0zM449.0631 124.75922a17.08002 17.08002 0 0 1-34.16004 0 17.08002 17.08002 0 1 1 34.16004 0zM530.14747 124.75922a17.08002 17.08002 0 0 1-34.16003 0 17.08002 17.08002 0 1 1 34.16003 0z" style="color:#000;fill:#ccc;fill-opacity:1;fill-rule:nonzero;stroke:#000;stroke-width:1.2000000500000001;stroke-miterlimit:4;stroke-opacity:1;stroke-dasharray:none;marker:none;visibility:visible;display:inline;overflow:visible;enable-background:accumulate"/>
    <path d="m462.29222 155.16244 19.68022 19.45889M481.9054 155.03436l-19.54613 19.71504" style="fill:#ccc;stroke:#000;stroke-width:2;stroke-linecap:butt;stroke-linejoin:miter;stroke-miterlimit:4;stroke-opacity:1;stroke-dasharray:none;display:inline"/>
    <path d="M524.50556 124.75921a11.4381 11.4381 0 1 1-22.87621 0 11.4381 11.4381 0 1 1 22.87621 0zM422.62027 115.39636h18.72568v18.72568h-18.72568zM472.13233 72.24401l11.38985 18.72566h-22.77969z" style="color:#000;fill:#ccc;stroke:#000;stroke-width:2;stroke-linecap:butt;stroke-linejoin:miter;stroke-miterlimit:4;stroke-opacity:1;stroke-dasharray:none;stroke-dashoffset:0;marker:none;visibility:visible;display:inline;overflow:visible;enable-background:accumulate"/>
  </g>
  <g style="fill:#ccc">
    <path d="M212.92425 150.28385c30.56191 0 52.67414 24.77577 52.67414 55.3377 0 30.56192-18.15358 55.3377-52.67414 55.3377-31.38096 0-53.78496-24.77578-53.78496-55.3377 0-8.07589 1.6118-15.74083 4.5627-22.65824l30.07562-29.19174c5.9024-2.24691 12.34182-3.48772 19.14664-3.48772z" style="color:#000;fill:#ccc;fill-opacity:1;fill-rule:nonzero;stroke:#000;stroke-width:1.2000000500000001;stroke-linecap:butt;stroke-linejoin:miter;stroke-miterlimit:4;stroke-opacity:1;stroke-dasharray:none;stroke-dashoffset:0;marker:none;visibility:visible;display:inline;overflow:visible;enable-background:accumulate"/>
    <g style="fill:#ccc;stroke-width:3.1395866899999998;stroke-miterlimit:4;stroke-dasharray:none;display:inline">
      <path d="M599.53125 384.65625c-70.98243 0-128.53125 57.51757-128.53125 128.5S528.54882 641.6875 599.53125 641.6875 728.0625 584.13868 728.0625 513.15625c0-20.56331-4.85137-39.98352-13.4375-57.21875l-61.28125-59.5c-16.37443-7.56296-34.59144-11.78125-53.8125-11.78125z" style="color:#000;fill:#ccc;fill-opacity:1;fill-rule:nonzero;stroke:#000;stroke-width:3.1395866899999998;stroke-linecap:butt;stroke-linejoin:miter;stroke-miterlimit:4;stroke-opacity:1;stroke-dasharray:none;stroke-dashoffset:0;marker:none;visibility:visible;display:inline;overflow:visible;enable-background:accumulate" transform="matrix(-.38222 0 0 .38222 441.40575 4.27737)"/>
      <path d="M1006.1119 333.13358a159.6041 159.6041 0 1 1-319.20818 0 159.6041 159.6041 0 1 1 319.20818 0z" style="color:#000;fill:#ccc;fill-opacity:1;fill-rule:nonzero;stroke:#000;stroke-width:5.3461456299999996;stroke-linecap:butt;stroke-linejoin:miter;stroke-miterlimit:4;stroke-opacity:1;stroke-dasharray:none;stroke-dashoffset:0;marker:none;visibility:visible;display:inline;overflow:visible;enable-background:accumulate" transform="matrix(-.22446 0 0 .22446 402.26536 125.64217)"/>
    </g>
    <path d="M245.2794 197.87011a31.90122 31.90122 0 1 1-63.80243 0 31.90122 31.90122 0 1 1 63.80243 0z" style="color:#000;fill:#ccc;fill-opacity:1;fill-rule:nonzero;stroke:#000;stroke-width:1.2000000500000001;stroke-linecap:butt;stroke-linejoin:miter;stroke-miterlimit:4;stroke-opacity:1;stroke-dasharray:none;stroke-dashoffset:0;marker:none;visibility:visible;display:inline;overflow:visible;enable-background:accumulate"/>
    <path d="M239.36886 197.87011a25.99068 25.99068 0 1 1-51.98136 0 25.99068 25.99068 0 1 1 51.98136 0z" style="opacity:.5;color:#000;fill:#ccc;fill-opacity:1;fill-rule:nonzero;stroke:#000;stroke-width:1.1999999299999999;stroke-linecap:butt;stroke-linejoin:miter;stroke-miterlimit:4;stroke-opacity:1;stroke-dasharray:none;stroke-dashoffset:0;marker:none;visibility:visible;display:inline;overflow:visible;enable-background:accumulate"/>
    <path d="M232.92431 197.87012a19.54613 19.54613 0 1 1-39.09226 0 19.54613 19.54613 0 1 1 39.09226 0z" style="opacity:.5;color:#000;fill:#ccc;fill-opacity:1;fill-rule:nonzero;stroke:#000;stroke-width:1.2000000500000001;stroke-linecap:butt;stroke-linejoin:miter;stroke-miterlimit:4;stroke-opacity:1;stroke-dasharray:none;stroke-dashoffset:0;marker:none;visibility:visible;display:inline;overflow:visible;enable-background:accumulate"/>
  </g>
  <g style="fill:#ccc">
    <path d="M387.99924 150.28385c-30.56191 0-52.67414 24.77577-52.67414 55.3377 0 30.56192 18.15358 55.3377 52.67414 55.3377 31.38096 0 53.78496-24.77578 53.78496-55.3377 0-8.07589-1.6118-15.74083-4.5627-22.65824l-30.07562-29.19174c-5.9024-2.24691-12.34182-3.48772-19.14664-3.48772z" style="color:#000;fill:#ccc;fill-opacity:1;fill-rule:nonzero;stroke:#000;stroke-width:1.2000000500000001;stroke-linecap:butt;stroke-linejoin:miter;stroke-miterlimit:4;stroke-opacity:1;stroke-dasharray:none;stroke-dashoffset:0;marker:none;visibility:visible;display:inline;overflow:visible;enable-background:accumulate"/>
    <g style="fill:#ccc;stroke-width:3.1395866899999998;stroke-miterlimit:4;stroke-dasharray:none;display:inline">
      <path d="M599.53125 384.65625c-70.98243 0-128.53125 57.51757-128.53125 128.5S528.54882 641.6875 599.53125 641.6875 728.0625 584.13868 728.0625 513.15625c0-20.56331-4.85137-39.98352-13.4375-57.21875l-61.28125-59.5c-16.37443-7.56296-34.59144-11.78125-53.8125-11.78125z" style="color:#000;fill:#ccc;fill-opacity:1;fill-rule:nonzero;stroke:#000;stroke-width:3.1395866899999998;stroke-linecap:butt;stroke-linejoin:miter;stroke-miterlimit:4;stroke-opacity:1;stroke-dasharray:none;stroke-dashoffset:0;marker:none;visibility:visible;display:inline;overflow:visible;enable-background:accumulate" transform="matrix(.38222 0 0 .38222 159.51774 4.27737)"/>
      <path d="M1006.1119 333.13358a159.6041 159.6041 0 1 1-319.20818 0 159.6041 159.6041 0 1 1 319.20818 0z" style="color:#000;fill:#ccc;fill-opacity:1;fill-rule:nonzero;stroke:#000;stroke-width:5.3461456299999996;stroke-linecap:butt;stroke-linejoin:miter;stroke-miterlimit:4;stroke-opacity:1;stroke-dasharray:none;stroke-dashoffset:0;marker:none;visibility:visible;display:inline;overflow:visible;enable-background:accumulate" transform="translate(198.65813 125.64217) scale(.22446)"/>
    </g>
    <path d="M420.20248 197.87011a31.90122 31.90122 0 1 1-63.80243 0 31.90122 31.90122 0 1 1 63.80243 0z" style="color:#000;fill:#ccc;fill-opacity:1;fill-rule:nonzero;stroke:#000;stroke-width:1.2000000500000001;stroke-linecap:butt;stroke-linejoin:miter;stroke-miterlimit:4;stroke-opacity:1;stroke-dasharray:none;stroke-dashoffset:0;marker:none;visibility:visible;display:inline;overflow:visible;enable-background:accumulate"/>
    <path d="M414.29195 197.87011a25.99068 25.99068 0 1 1-51.98136 0 25.99068 25.99068 0 1 1 51.98136 0z" style="opacity:.5;color:#000;fill:#ccc;fill-opacity:1;fill-rule:nonzero;stroke:#000;stroke-width:1.1999999299999999;stroke-linecap:butt;stroke-linejoin:miter;stroke-miterlimit:4;stroke-opacity:1;stroke-dasharray:none;stroke-dashoffset:0;marker:none;visibility:visible;display:inline;overflow:visible;enable-background:accumulate"/>
    <path d="M407.8474 197.87012a19.54613 19.54613 0 1 1-39.09226 0 19.54613 19.54613 0 1 1 39.09226 0z" style="opacity:.5;color:#000;fill:#ccc;fill-opacity:1;fill-rule:nonzero;stroke:#000;stroke-width:1.2000000500000001;stroke-linecap:butt;stroke-linejoin:miter;stroke-miterlimit:4;stroke-opacity:1;stroke-dasharray:none;stroke-dashoffset:0;marker:none;visibility:visible;display:inline;overflow:visible;enable-background:accumulate"/>
  </g>
  <g style="fill:#ccc">
    <path d="M188.8255 56.58123c-4.8239 0-8.73124 3.90733-8.73124 8.73125v13.30588c0 4.82391 3.90734 8.73125 8.73124 8.73125 4.82391 0 8.73125-3.90734 8.73125-8.73125V65.31248c0-4.82392-3.90734-8.73125-8.73125-8.73125zM412.79696 56.58123c-4.8239 0-8.73124 3.90733-8.73124 8.73125v13.30588c0 4.82391 3.90734 8.73125 8.73124 8.73125 4.82391 0 8.73125-3.90734 8.73125-8.73125V65.31248c0-4.82392-3.90734-8.73125-8.73125-8.73125zM313.75468 203.372a13.75468 13.75468 0 1 1-27.50936 0 13.75468 13.75468 0 1 1 27.50936 0z" style="color:#000;fill:#ccc;fill-opacity:1;fill-rule:nonzero;stroke:#000;stroke-width:1.2000000500000001;stroke-linecap:butt;stroke-linejoin:miter;stroke-miterlimit:4;stroke-opacity:1;stroke-dasharray:none;stroke-dashoffset:0;marker:none;visibility:visible;display:inline;overflow:visible;enable-background:accumulate"/>
    <g style="fill:#ccc;stroke-width:3.1395866899999998;stroke-miterlimit:4;stroke-dasharray:none;display:inline">
      <path d="M328.0357 420.44254a6.91964 6.91964 0 1 1-13.83928 0 6.91964 6.91964 0 1 1 13.83928 0z" style="color:#000;fill:#ccc;fill-opacity:1;fill-rule:nonzero;stroke:#000;stroke-width:3.3794162299999999;stroke-linecap:butt;stroke-linejoin:miter;stroke-miterlimit:4;stroke-opacity:1;stroke-dasharray:none;stroke-dashoffset:0;marker:none;visibility:visible;display:inline;overflow:visible;enable-background:accumulate" transform="matrix(.3551 0 0 .3551 166.57373 14.8799)"/>
      <path d="M328.0357 420.44254a6.91964 6.91964 0 1 1-13.83928 0 6.91964 6.91964 0 1 1 13.83928 0z" style="color:#000;fill:#ccc;fill-opacity:1;fill-rule:nonzero;stroke:#000;stroke-width:3.6589167100000002;stroke-linecap:butt;stroke-linejoin:miter;stroke-miterlimit:4;stroke-opacity:1;stroke-dasharray:none;stroke-dashoffset:0;marker:none;visibility:visible;display:inline;overflow:visible;enable-background:accumulate" transform="matrix(.32797 0 0 .32797 185.03137 26.4721)"/>
      <path d="M328.0357 420.44254a6.91964 6.91964 0 1 1-13.83928 0 6.91964 6.91964 0 1 1 13.83928 0z" style="color:#000;fill:#ccc;fill-opacity:1;fill-rule:nonzero;stroke:#000;stroke-width:3.6589167100000002;stroke-linecap:butt;stroke-linejoin:miter;stroke-miterlimit:4;stroke-opacity:1;stroke-dasharray:none;stroke-dashoffset:0;marker:none;visibility:visible;display:inline;overflow:visible;enable-background:accumulate" transform="matrix(.32797 0 0 .32797 194.77873 26.4721)"/>
      <path d="M328.0357 420.44254a6.91964 6.91964 0 1 1-13.83928 0 6.91964 6.91964 0 1 1 13.83928 0z" style="color:#000;fill:#ccc;fill-opacity:1;fill-rule:nonzero;stroke:#000;stroke-width:3.6589167100000002;stroke-linecap:butt;stroke-linejoin:miter;stroke-miterlimit:4;stroke-opacity:1;stroke-dasharray:none;stroke-dashoffset:0;marker:none;visibility:visible;display:inline;overflow:visible;enable-background:accumulate" transform="matrix(.32797 0 0 .32797 204.52608 26.4721)"/>
      <path d="M328.0357 420.44254a6.91964 6.91964 0 1 1-13.83928 0 6.91964 6.91964 0 1 1 13.83928 0z" style="color:#000;fill:#ccc;fill-opacity:1;fill-rule:nonzero;stroke:#000;stroke-width:3.6589167100000002;stroke-linecap:butt;stroke-linejoin:miter;stroke-miterlimit:4;stroke-opacity:1;stroke-dasharray:none;stroke-dashoffset:0;marker:none;visibility:visible;display:inline;overflow:visible;enable-background:accumulate" transform="matrix(.32797 0 0 .32797 214.27345 26.4721)"/>
      <path d="M328.0357 420.44254a6.91964 6.91964 0 1 1-13.83928 0 6.91964 6.91964 0 1 1 13.83928 0z" style="color:#000;fill:#ccc;fill-opacity:1;fill-rule:nonzero;stroke:#000;stroke-width:3.6589167100000002;stroke-linecap:butt;stroke-linejoin:miter;stroke-miterlimit:4;stroke-opacity:1;stroke-dasharray:none;stroke-dashoffset:0;marker:none;visibility:visible;display:inline;overflow:visible;enable-background:accumulate" transform="matrix(.32797 0 0 .32797 209.38752 33.69954)"/>
      <path d="M328.0357 420.44254a6.91964 6.91964 0 1 1-13.83928 0 6.91964 6.91964 0 1 1 13.83928 0z" style="color:#000;fill:#ccc;fill-opacity:1;fill-rule:nonzero;stroke:#000;stroke-width:3.6589167100000002;stroke-linecap:butt;stroke-linejoin:miter;stroke-miterlimit:4;stroke-opacity:1;stroke-dasharray:none;stroke-dashoffset:0;marker:none;visibility:visible;display:inline;overflow:visible;enable-background:accumulate" transform="matrix(.32797 0 0 .32797 199.54806 33.69954)"/>
      <path d="M328.0357 420.44254a6.91964 6.91964 0 1 1-13.83928 0 6.91964 6.91964 0 1 1 13.83928 0z" style="color:#000;fill:#ccc;fill-opacity:1;fill-rule:nonzero;stroke:#000;stroke-width:3.6589167100000002;stroke-linecap:butt;stroke-linejoin:miter;stroke-miterlimit:4;stroke-opacity:1;stroke-dasharray:none;stroke-dashoffset:0;marker:none;visibility:visible;display:inline;overflow:visible;enable-background:accumulate" transform="matrix(.32797 0 0 .32797 189.7086 33.69954)"/>
      <path d="M328.0357 420.44254a6.91964 6.91964 0 1 1-13.83928 0 6.91964 6.91964 0 1 1 13.83928 0z" style="color:#000;fill:#ccc;fill-opacity:1;fill-rule:nonzero;stroke:#000;stroke-width:3.6589167100000002;stroke-linecap:butt;stroke-linejoin:miter;stroke-miterlimit:4;stroke-opacity:1;stroke-dasharray:none;stroke-dashoffset:0;marker:none;visibility:visible;display:inline;overflow:visible;enable-background:accumulate" transform="matrix(.32797 0 0 .32797 179.86916 33.69954)"/>
      <path d="M328.0357 420.44254a6.91964 6.91964 0 1 1-13.83928 0 6.91964 6.91964 0 1 1 13.83928 0z" style="color:#000;fill:#ccc;fill-opacity:1;fill-rule:nonzero;stroke:#000;stroke-width:3.6589167100000002;stroke-linecap:butt;stroke-linejoin:miter;stroke-miterlimit:4;stroke-opacity:1;stroke-dasharray:none;stroke-dashoffset:0;marker:none;visibility:visible;display:inline;overflow:visible;enable-background:accumulate" transform="matrix(.32797 0 0 .32797 184.83849 40.78956)"/>
      <path d="M328.0357 420.44254a6.91964 6.91964 0 1 1-13.83928 0 6.91964 6.91964 0 1 1 13.83928 0z" style="color:#000;fill:#ccc;fill-opacity:1;fill-rule:nonzero;stroke:#000;stroke-width:3.6589167100000002;stroke-linecap:butt;stroke-linejoin:miter;stroke-miterlimit:4;stroke-opacity:1;stroke-dasharray:none;stroke-dashoffset:0;marker:none;visibility:visible;display:inline;overflow:visible;enable-background:accumulate" transform="matrix(.32797 0 0 .32797 194.68004 40.78956)"/>
      <path d="M328.0357 420.44254a6.91964 6.91964 0 1 1-13.83928 0 6.91964 6.91964 0 1 1 13.83928 0z" style="color:#000;fill:#ccc;fill-opacity:1;fill-rule:nonzero;stroke:#000;stroke-width:3.6589167100000002;stroke-linecap:butt;stroke-linejoin:miter;stroke-miterlimit:4;stroke-opacity:1;stroke-dasharray:none;stroke-dashoffset:0;marker:none;visibility:visible;display:inline;overflow:visible;enable-background:accumulate" transform="matrix(.32797 0 0 .32797 204.52157 40.78956)"/>
    </g>
    <g style="font-size:8.0947723400000005px;font-style:normal;font-variant:normal;font-weight:400;font-stretch:normal;text-align:start;line-height:125%;letter-spacing:0;word-spacing:0;writing-mode:lr-tb;text-anchor:start;fill:#000;fill-opacity:1;stroke:none;display:inline;font-family:Calibri;-inkscape-font-specification:Calibri">
      <path d="M144.3044 65.72212c0 .23978-.0441.45322-.13241.6403-.0883.1871-.2108.34585-.36758.47628-.15679.13044-.34124.2286-.55335.29447-.21213.06588-.44071.0988-.68577.0988-.17128 0-.33004-.01448-.47628-.04347-.14624-.02898-.27668-.06456-.3913-.10672-.11462-.04216-.2108-.08564-.28853-.13043-.0777-.0448-.13175-.083-.16206-.11463-.0303-.03162-.0527-.0718-.0672-.12055-.0145-.04875-.0217-.11396-.0217-.19565 0-.05797.003-.10606.008-.14427.005-.0382.0132-.06917.0237-.09288.0105-.0237.0237-.04018.0395-.0494.0158-.0092.0342-.01384.0553-.01384.0369 0 .0889.0224.15613.0672.0672.0448.15349.09353.25889.14624.1054.0527.23254.1021.38142.14822.14887.0461.32081.06917.5158.06917.14756 0 .28261-.01976.40514-.0593.12252-.03951.22792-.09551.3162-.16798.0883-.07245.15612-.16139.20355-.2668.0474-.10539.0711-.22528.0711-.35967 0-.14492-.0329-.26877-.0988-.37154-.0659-.10276-.15284-.19301-.26087-.27075-.10804-.07773-.23123-.14887-.36956-.21343a188.1107 188.1107 0 0 0-.4249-.19763 4.62005 4.62005 0 0 1-.42292-.22332c-.13702-.08168-.25955-.17786-.36758-.28853-.10804-.11067-.19565-.24044-.26285-.38932-.0672-.14888-.10079-.3274-.10079-.53557 0-.21343.0389-.40381.1166-.57114.0777-.16732.18577-.30763.32411-.42095.13834-.1133.30303-.1996.49407-.25889.19103-.05928.39722-.08893.61857-.08893.1133 0 .22726.0099.34189.02964.11462.01977.22266.04612.32411.07905.10144.03294.19169.06983.27074.11067.0791.04085.13109.0738.15613.09881.025.02504.0415.0448.0494.0593.008.0145.0145.03293.0198.05533.005.0224.009.04941.0119.08103.003.03162.004.07247.004.12253 0 .04744-.002.0896-.006.12648-.004.0369-.01.06786-.0178.09288-.008.02504-.0191.04348-.0336.05533-.0145.01186-.031.0178-.0494.0178-.029 0-.0744-.01845-.13636-.05535-.0619-.03689-.13768-.07839-.22727-.1245-.0896-.04611-.19565-.08827-.31818-.12648-.12253-.0382-.26021-.05731-.41304-.05731-.14229 0-.26614.0191-.37154.0573-.1054.03822-.19235.08895-.26086.15218-.0685.06325-.1199.13834-.15415.2253-.0343.08695-.0514.17918-.0514.27667-.00001.1423.0329.26482.0988.36759.0659.10277.15349.19367.26284.27272.10935.07905.23386.15152.37352.21739.13965.06588.28194.13241.42687.1996a5.46183 5.46183 0 0 1 .42687.22134c.13965.08037.26416.17523.37351.28459.10935.10935.19763.23847.26482.38734.0672.14888.10079.32477.10079.52766zM148.95653 67.05412c-.00001.02108-.005.03952-.0158.05533-.0105.0158-.029.02833-.0553.03755-.0264.0092-.0613.01713-.10474.0237-.0435.0066-.0968.0099-.16008.0099-.0685 0-.12385-.0033-.16601-.0099-.0422-.0066-.0764-.01448-.10276-.0237-.0264-.0092-.0448-.02174-.0553-.03755-.0105-.01581-.0158-.03426-.0158-.05533v-2.26875h-2.32803v2.26875c-.00001.02108-.005.03952-.0158.05533-.0105.0158-.029.02833-.0553.03755-.0264.0092-.0613.01713-.10474.0237-.0435.0066-.0982.0099-.16403.0099-.0632 0-.11726-.0033-.16205-.0099-.0448-.0066-.0804-.01448-.10672-.0237-.0264-.0092-.0448-.02174-.0553-.03755-.0105-.01581-.0158-.03426-.0158-.05533v-4.90904c0-.02107.005-.03952.0158-.05534.0105-.0158.029-.02832.0553-.03755.0264-.0092.0619-.01712.10672-.02372.0448-.0066.0988-.0099.16205-.0099.0659 0 .12055.0033.16403.0099.0435.0066.0784.0145.10474.02372.0264.0092.0448.02174.0553.03755.0105.01582.0158.03426.0158.05534v2.0474h2.32803v-2.0474c0-.02107.005-.03952.0158-.05534.0105-.0158.029-.02832.0553-.03755.0264-.0092.0606-.01712.10276-.02372.0422-.0066.0975-.0099.16601-.0099.0632 0 .1166.0033.16008.0099.0435.0066.0784.0145.10474.02372.0264.0092.0448.02174.0553.03755.0105.01582.0158.03426.0158.05534zM154.14619 66.91578c.0211.05797.0323.10474.0336.14031.001.03557-.009.06258-.0297.08103-.0211.01844-.056.0303-.10474.03557-.0488.0053-.11397.0079-.19565.0079-.0817 0-.1469-.002-.19565-.0059-.0488-.004-.0856-.01054-.11067-.01976-.025-.0092-.0435-.02174-.0553-.03755-.0119-.0158-.0231-.03557-.0336-.05929l-.43873-1.24504h-2.12646l-.41897 1.22923c-.008.02371-.0184.04414-.0316.06126-.0132.01713-.0323.03162-.0573.04348-.025.01186-.0606.02042-.10672.0257-.0461.0053-.10606.0079-.17984.0079-.0764 0-.13899-.0033-.18774-.0099-.0487-.0066-.083-.0191-.10277-.03756-.0198-.01844-.029-.04545-.0277-.08103.001-.03557.0125-.08234.0336-.14031l1.7154-4.75094c.0105-.02898.0244-.05269.0415-.07115.0171-.01844.0422-.03293.0751-.04348.0329-.01053.0751-.01778.12648-.02174.0514-.0039.11659-.0059.19565-.0059.0843 0 .15414.002.20948.0059.0553.004.10013.0112.13439.02174.0343.01055.0606.0257.079.04545.0184.01977.0329.04414.0435.07312zm-2.20155-4.19363h-.004l-.88141 2.54938h1.77864zM158.40701 67.05412c0 .02108-.004.03952-.0119.05533-.008.0158-.025.02898-.0514.03952s-.0632.01844-.11067.0237c-.0474.0053-.11067.0079-.18972.0079-.0685 0-.12451-.0026-.16798-.0079-.0435-.0053-.0784-.01382-.10474-.02568-.0264-.01186-.0468-.02833-.0613-.04941-.0145-.02108-.027-.04743-.0376-.07905l-.47035-1.20552c-.0553-.13702-.11265-.26284-.17193-.37747-.0593-.11462-.12978-.21343-.21146-.29644-.0817-.083-.17787-.14756-.28854-.19367-.11067-.04611-.24374-.06917-.3992-.06917h-.45454v2.17784c0 .02108-.006.03952-.0178.05533-.0119.01581-.0303.02833-.0553.03755-.025.0092-.0593.01713-.10277.02371-.0435.0066-.0982.0099-.16403.0099-.0659 0-.12055-.0033-.16403-.0099-.0435-.0066-.0784-.01449-.10474-.02371-.0263-.0092-.0448-.02174-.0553-.03755-.0105-.01581-.0158-.03426-.0158-.05533v-4.73513c-.00001-.10276.027-.17456.081-.2154.054-.04085.11133-.06127.17194-.06127h1.08694c.12911 0 .23649.0033.32213.0099.0856.0066.16271.01384.23122.02174.19763.03426.3722.08828.52371.16205.15151.0738.27865.16733.38142.28063.10277.11331.17984.24309.23123.38933.0514.14625.0771.30764.0771.48418 0 .17128-.0231.32477-.0692.46047s-.11265.2556-.1996.35968c-.087.10409-.19104.19434-.31225.27075-.12121.07642-.25692.14097-.40711.19367.0843.0369.16073.08366.22925.14032.0685.05666.1324.1245.19169.20355.0593.07905.11528.16996.16799.27273.0527.10276.10539.2187.1581.34782l.45849 1.12647c.0369.09486.0606.1614.0711.1996.0105.03821.0158.06785.0158.08893zm-1.0237-3.59285c0-.20026-.0448-.36955-.13439-.5079-.0896-.13833-.23978-.2378-.45058-.29841-.0659-.01844-.14032-.03162-.22332-.03953-.083-.0079-.1917-.01185-.32608-.01186h-.57312v1.7233h.66402c.17918 0 .33399-.02174.46443-.06522.13043-.04348.23912-.10408.32608-.18182.087-.07773.15085-.1693.1917-.2747.0408-.1054.0613-.22002.0613-.34387zM162.23701 66.87625c0 .04743-.003.08893-.008.1245-.005.03558-.0145.06523-.0277.08894-.0132.02372-.0283.04084-.0454.05138-.0171.01054-.0362.0158-.0573.0158h-2.45451c-.0606 0-.11792-.02041-.17194-.06125-.054-.04084-.081-.11265-.081-.21541v-4.56122c0-.10276.027-.17456.081-.21541.054-.04084.11133-.06126.17194-.06126h2.42685c.0211 0 .0402.0053.0573.0158.0171.01056.031.02768.0415.05139.0105.02372.0191.05336.0257.08893.007.03558.01.0797.01.1324 0 .04745-.003.08895-.01.12451-.007.03558-.0152.06456-.0257.08696-.0105.0224-.0244.03887-.0415.04941-.0171.01055-.0362.01582-.0573.01581h-1.99998v1.60473h1.71539c.0211 0 .0402.0059.0573.01779.0171.01186.0316.02833.0435.0494.0119.02109.0204.05008.0257.08697.005.03689.008.08037.008.13043 0 .04743-.003.08827-.008.12253s-.0138.06193-.0257.083c-.0119.02108-.0264.03623-.0435.04545-.0171.0092-.0362.01384-.0573.01383h-1.71539v1.83002h2.02764c.0211 0 .0402.0053.0573.0158.0171.01055.0323.02702.0454.04942.0132.0224.0224.05138.0277.08695.005.03557.008.0797.008.1324z" style="fill:#000" transform="scale(1.24498 .80323)"/>
    </g>
    <g style="font-size:8.0055303599999998px;font-style:normal;font-variant:normal;font-weight:400;font-stretch:normal;text-align:start;line-height:125%;letter-spacing:0;word-spacing:0;writing-mode:lr-tb;text-anchor:start;fill:#000;fill-opacity:1;stroke:none;display:inline;font-family:Calibri;-inkscape-font-specification:Calibri">
      <path d="M326.96344 63.9686c0 .40913-.0482.77788-.14463 1.10623-.0964.32835-.2404.60784-.43194.83847s-.43194.40783-.7212.53161c-.28926.12379-.62674.18568-1.01242.18568-.38047 0-.70947-.05668-.98701-.17004-.27753-.11336-.50686-.27819-.68797-.49448-.18112-.2163-.31597-.48471-.40458-.80525-.0886-.32053-.1329-.68927-.1329-1.10623 0-.3987.0482-.76094.14463-1.08669.0964-.32574.24105-.60262.43389-.83065.19284-.22802.4339-.40392.72316-.5277.28926-.12379.62673-.18568 1.01242-.18568.37265 0 .69709.05603.97333.16808.27622.11206.5062.27559.68993.49058.18371.215.32052.4808.41044.79742.0899.31663.13485.67951.13485 1.08864zm-.70752.0469c0-.28665-.0254-.5531-.0762-.79937-.0508-.24626-.13551-.45995-.25408-.64107-.11858-.18111-.27689-.32249-.47494-.42412-.19806-.10163-.44302-.15245-.73488-.15245-.29187 0-.53683.05473-.73488.16417-.19806.10946-.35898.2554-.48276.4378-.12379.18243-.21239.39546-.26581.63912-.0534.24366-.0801.4997-.0801.7681 0 .29709.0247.57072.0743.82089.0495.25017.1329.46582.25017.64693.11727.18111.27428.32184.47103.42217.19675.10032.44366.15049.74075.15049.29447 0 .54203-.05473.7427-.16418.20065-.10945.36222-.25733.48471-.44366.12247-.18633.20977-.40197.2619-.64693.0521-.24496.0782-.50426.0782-.77788zM331.13429 62.97963c0 .25278-.0417.4808-.12508.68407-.0834.20327-.20262.37656-.35767.51989-.15506.14333-.34529.25408-.57071.33226-.22542.07818-.49448.11727-.8072.11727h-.57461v1.82157c0 .02085-.006.03909-.0176.05473-.0117.01564-.03.028-.0547.03714-.0248.0091-.0586.01694-.10163.02345-.043.0065-.0971.0098-.16222.0098-.0651 0-.11923-.0033-.16222-.0098-.043-.0065-.0775-.01433-.10359-.02345-.0261-.0091-.0443-.0215-.0547-.03714s-.0156-.03388-.0156-.05473V61.7874c0-.10423.0274-.1785.0821-.2228.0547-.0443.11596-.06646.18372-.06646h1.08278c.10944 0 .21434.0046.31467.01368.10032.0091.2189.02867.35571.05863.13681.02997.27623.086.41826.16809.14202.08209.26255.18307.36158.30294.099.11988.17524.25865.22867.4163.0534.15767.0801.33162.0801.52185zm-.70752.05473c0-.20587-.0384-.37786-.11531-.51598-.0769-.13811-.172-.24105-.28535-.3088-.11337-.06776-.23063-.11076-.35181-.129-.12118-.01824-.2391-.02736-.35376-.02736h-.62152v2.02874h.60589c.20326 0 .37199-.02606.5062-.07818s.24692-.12443.33813-.21694c.0912-.09251.16026-.20327.20717-.33227.0469-.12899.0704-.26906.0704-.4202zM335.34032 61.7874c0 .04952-.003.09252-.008.129-.005.03649-.0137.0658-.0254.08795-.0117.02216-.0261.03844-.043.04886-.0169.01043-.0358.01564-.0567.01564h-1.42286v4.38584c0 .02085-.005.03909-.0156.05473-.0104.01564-.0287.028-.0547.03714-.0261.0091-.0606.01694-.10359.02345-.043.0065-.0971.0098-.16222.0098-.0625 0-.11596-.0033-.16026-.0098-.0443-.0065-.0795-.01433-.10555-.02345-.0261-.0091-.0443-.0215-.0547-.03714s-.0156-.03388-.0156-.05473v-4.38584h-1.42285c-.0208 0-.0397-.0052-.0567-.01564-.0169-.01042-.0306-.02671-.0411-.04886-.0104-.02215-.0189-.05146-.0254-.08795-.007-.03648-.01-.07948-.01-.129 0-.0495.003-.09316.01-.13095.007-.03778.015-.0684.0254-.09186.0104-.02345.0241-.04039.0411-.05082.0169-.01042.0358-.01563.0567-.01564h3.51805c.0208 0 .0397.0052.0567.01564.0169.01043.0313.02737.043.05082.0117.02346.0202.05408.0254.09186.005.0378.008.08144.008.13095zM336.75146 66.45469c-.00001.02085-.005.03909-.0156.05473-.0104.01564-.0287.028-.0547.03714-.0261.0091-.0606.01694-.10358.02345-.043.0065-.0971.0098-.16222.0098-.0626 0-.11597-.0033-.16027-.0098-.0443-.0065-.0795-.01433-.10554-.02345-.0261-.0091-.0443-.0215-.0547-.03714s-.0156-.03388-.0156-.05473v-4.85492c0-.02084.006-.03908.0176-.05472.0117-.01563.0313-.028.0586-.03713.0274-.0091.0625-.01693.10554-.02345.043-.0065.0945-.0098.15441-.0098.0651 0 .11922.0033.16222.0098s.0775.01434.10358.02345c.0261.0091.0443.0215.0547.03713.0104.01564.0156.03388.0156.05472zM342.33344 63.9686c-.00001.40913-.0482.77788-.14463 1.10623-.0964.32835-.24041.60784-.43194.83847-.19155.23063-.43195.40783-.7212.53161-.28927.12379-.62674.18568-1.01242.18568-.38048 0-.70948-.05668-.98701-.17004-.27754-.11336-.50686-.27819-.68798-.49448-.18111-.2163-.31597-.48471-.40457-.80525-.0886-.32053-.13291-.68927-.13291-1.10623 0-.3987.0482-.76094.14463-1.08669.0964-.32574.24105-.60262.4339-.83065.19284-.22802.43389-.40392.72315-.5277.28926-.12379.62673-.18568 1.01242-.18568.37265 0 .69709.05603.97333.16808.27623.11206.5062.27559.68993.49058.18371.215.32053.4808.41044.79742.0899.31663.13485.67951.13486 1.08864zm-.70752.0469c-.00001-.28665-.0254-.5531-.0762-.79937-.0508-.24626-.13551-.45995-.25408-.64107-.11857-.18111-.27689-.32249-.47494-.42412-.19805-.10163-.44301-.15245-.73488-.15245-.29187 0-.53683.05473-.73488.16417-.19806.10946-.35898.2554-.48276.4378-.12378.18243-.21238.39546-.26581.63912-.0534.24366-.0801.4997-.0801.7681 0 .29709.0248.57072.0743.82089s.1329.46582.25017.64693c.11727.18111.27428.32184.47103.42217.19675.10032.44367.15049.74075.15049.29447 0 .54204-.05473.7427-.16418.20065-.10945.36222-.25733.48471-.44366.12248-.18633.20977-.40197.2619-.64693.0521-.24496.0782-.50426.0782-.77788zM347.21962 66.27878c0 .05213-.008.09643-.0254.1329-.0169.03649-.0391.06646-.0665.08992-.0274.02345-.058.04039-.0919.05082-.0339.01042-.0678.01564-.10163.01564h-.21499c-.0678 0-.12705-.0072-.17786-.0215-.0508-.01433-.099-.0404-.14463-.07818-.0456-.0378-.0912-.08925-.13681-.1544-.0456-.06516-.0958-.14854-.1505-.25018l-1.59485-2.87699c-.0834-.14853-.16743-.30424-.25213-.46712-.0847-.16286-.16352-.32118-.23649-.47493h-.008c.005.18763.009.37917.0117.57461.003.19545.004.3896.004.58244v3.05289c0 .01824-.005.03583-.0156.05277-.0104.01694-.028.02997-.0528.03909-.0248.0091-.0573.01694-.0977.02345-.0404.0065-.0919.0098-.1544.0098-.0625 0-.11402-.0033-.15441-.0098-.0404-.0065-.0723-.01433-.0958-.02345-.0235-.0091-.0404-.02215-.0508-.0391-.0104-.01693-.0156-.03452-.0156-.05276V61.7874c0-.10423.0287-.1785.086-.2228.0573-.0443.11987-.06646.18763-.06646h.32053c.0756 0 .13877.0065.18958.01955.0508.01304.0964.03453.13682.0645.0404.02997.0795.07167.11727.12509.0378.05343.0788.12053.12313.2013l1.22741 2.2203c.0756.1355.14854.26776.2189.39675.0704.129.13811.25604.20327.38112.0651.1251.12964.24822.19349.3694.0638.12118.12704.243.18958.36549h.004c-.005-.20587-.008-.42021-.01-.64303-.001-.2228-.002-.43714-.002-.64302v-2.74408c0-.01824.005-.03518.0156-.05082.0104-.01563.028-.02931.0528-.04104.0247-.01172.0573-.0202.0977-.02541.0404-.0052.0931-.0078.15831-.0078.0573 0 .10684.0026.14854.0078s.0743.01369.0977.0254c.0235.01174.0404.02542.0508.04105.0104.01564.0156.03258.0156.05082zM351.28884 65.13737c0 .23714-.0437.44823-.13095.63325-.0873.18503-.20848.34204-.36353.47103-.15506.129-.33748.22607-.54725.29122-.20979.06515-.43585.09772-.67821.09772-.16939 0-.32639-.01433-.47102-.043-.14464-.02867-.27363-.06385-.38699-.10555-.11336-.0417-.20848-.08469-.28535-.129-.0769-.0443-.1303-.08208-.16027-.11335-.03-.03127-.0521-.07101-.0664-.11922s-.0215-.11271-.0215-.1935c0-.05733.003-.10489.008-.14267.005-.03778.013-.0684.0235-.09186.0104-.02345.0234-.03974.0391-.04886.0156-.0091.0339-.01368.0547-.01368.0365 0 .088.02215.15441.06645.0664.0443.15179.0925.25603.14463.10424.05212.22998.10098.37722.14658.14723.04561.31727.06841.51012.06841.14593 0 .27948-.01955.40066-.05864.12118-.03909.22542-.09446.31272-.16613.0873-.07166.1544-.15961.20131-.26385.0469-.10424.0704-.22281.0704-.35572 0-.14332-.0326-.2658-.0977-.36744-.0651-.10163-.15115-.19088-.25799-.26776-.10685-.07687-.22868-.14724-.36549-.21108a192.89336 192.89336 0 0 0-.42021-.19545 4.56957 4.56957 0 0 1-.41826-.22086c-.13551-.08078-.25669-.1759-.36353-.28535-.10685-.10945-.1935-.2378-.25995-.38503-.0665-.14724-.0997-.32379-.0997-.52966 0-.21108.0384-.39937.11532-.56485.0769-.16547.18372-.30424.32053-.4163.13681-.11205.29969-.1974.48862-.25604.18893-.05863.39285-.08795.61175-.08795.11206 0 .22476.0098.33813.02932.11335.01955.2202.04561.32053.07818.10033.03258.18958.06906.26776.10945.0782.0404.12965.07297.15441.09772.0248.02476.041.04431.0489.05863.008.01434.0143.03258.0195.05472.005.02216.009.04887.0117.08013.003.03128.004.07167.004.12118 0 .04691-.002.08861-.006.12509-.004.03649-.01.0671-.0176.09186-.008.02476-.0189.043-.0332.05472-.0143.01173-.0306.0176-.0489.01759-.0287 0-.0736-.01824-.13486-.05473-.0612-.03648-.13617-.07752-.22477-.12313-.0886-.0456-.19349-.0873-.31467-.12509-.12118-.03778-.25734-.05667-.40848-.05668-.14073 0-.26321.0189-.36744.05668-.10424.03779-.19024.08796-.25799.1505-.0678.06255-.11858.13681-.15245.2228-.0339.086-.0508.17722-.0508.27363 0 .14073.0326.2619.0977.36353.0652.10164.1518.19155.25995.26972.10815.07818.23128.14985.3694.215.13811.06514.27883.13095.42216.1974a5.40023 5.40023 0 0 1 .42217.2189c.13811.07948.26124.1733.36939.28144.10815.10815.19545.23584.2619.38308.0664.14724.0997.32119.0997.52184z" style="fill:#000" transform="scale(1.23125 .81218)"/>
    </g>
    <g style="fill:#000;stroke-width:17.909742359999999;stroke-miterlimit:4;stroke-dasharray:none;display:inline">
      <g style="fill:#000;stroke-width:22.817491530000002;stroke-miterlimit:4;stroke-dasharray:none">
        <path d="m1442.9581 1196.8425-.242 234.3159-59.4601-20.4178-.4185-274.2048 75.8973 21.1864c48.5826 13.7861 78.3137 40.5845 77.8302 87.5507-.4829 54.6248-25.8649 75.8164-68.8533 55.8404v-101.2762c0-14.941-24.7536-25.8506-24.7536-2.9946zM1370.7136 1303.1522l-8.9415 2.8809-86.5464 31.0437c-18.2193 8.3547-33.4371 13.7582-33.5335 27.3708.4569 17.2306 27.4593 25.6141 66.9974 32.2183 21.0698 4.2232 42.5958 1.3924 61.026-2.5123l.015-32.4651s-34.1651 13.278-42.2947 14.3829l-16.4389-.09c-12.2037-.067-17.8867-7.8843-5.7302-12.0759l65.4355-24.7626.011-35.9902z" style="fill:#000;fill-opacity:1;fill-rule:evenodd;stroke-width:22.817491530000002;stroke-miterlimit:4;stroke-dasharray:none" transform="matrix(.0526 0 0 .0526 224.81498 135.8529)"/>
        <path d="M1524.5024 1317.7768c-22.722-.075-54.1883 6.1167-69.7875 13.3735v37.0026l41.1316-15.041 32.581-10.3583c33.9325-5.5872 47.4232 6.2615 14.3731 16.1649l-88.0833 32.2321-.1072 35.8824 128.695-46.2998c14.2026-4.9527 34.177-14.9519 34.225-27.2419-3.4472-19.028-32.0697-30.1323-76.5199-34.8392-3.9869-.4111-7.9933-.6688-11.9728-.7879-1.5161-.044-3.0225-.083-4.5372-.088z" style="fill:#000;fill-opacity:1;fill-rule:evenodd;stroke-width:22.817491530000002;stroke-miterlimit:4;stroke-dasharray:none" transform="matrix(.0526 0 0 .0526 224.81498 135.8529)"/>
      </g>
    </g>
  </g>
</svg>
