<svg xmlns="http://www.w3.org/2000/svg" xml:space="preserve" viewBox="0 0 600 113.8">
  <path fill="#000" d="m170.7 82.7-18.1-51.5h9.4c11.1 32.3 12.6 36.9 13.8 40.9 1.1-3.7 2.7-8.7 14.3-40.9h9.4l-19 51.5h-9.8zM208.4 82.7V31.2h8.9v51.5zM320.2 61c0 7-.6 11.5-2.5 14.7-2.9 5.1-9.3 8.1-18.4 8.1-8.6 0-14.9-2.6-17.9-8.3-1.8-3.3-2.4-8.2-2.4-14V31.2h8.8v30.1c0 4.2.3 7.2 1 9.2 1.3 3.3 4.5 5.9 10.9 5.9 5.6 0 9-1.9 10.7-5.4.8-1.8 1.7-5.1 1.7-9.4V31.2h8.1V61zM331.2 72.8c3.9 1.8 9 3.5 14.9 3.5 7 0 10.6-2.6 10.6-7.1 0-3.5-1.2-5.4-8-7.7l-7.2-2.4c-7.5-2.5-11.1-7-11.1-14.3 0-7.8 6.2-14.7 19.4-14.7 5.1 0 10.3.9 14.4 2.4l-1.9 7.4c-4.2-1.4-9.3-2.4-13.6-2.4-7.1 0-9.1 3.7-9.1 6.8s1 5.1 6.9 7.1l7.2 2.5c8.8 2.9 11.9 7.6 11.9 14.3 0 8.2-5.7 15.4-19.5 15.4-6.5 0-12.7-1.5-17.2-3.6l2.3-7.2zM390.1 82.7V39.3h-15.5v-8.1h39.7v8.1h-15.4v43.4zM482 82.7V39.3h-15.5v-8.1h39.7v8.1h-15.4v43.4zM439.3 83.7c-14.9 0-24.4-12.5-24.4-27.3 0-16.3 9.6-26.3 25.6-26.3 15.5 0 23.6 12 23.7 26.3.1 14.6-9.2 27.3-24.9 27.3zm.7-46.2c-10.1 0-15.7 6.4-15.7 19 0 15.4 6.7 19.9 15.5 19.9 9.1 0 15.3-5.7 15.3-19.4.1-12.3-3.4-19.5-15.1-19.5zM504.4 82.7l19.8-51.5h10.1l19.3 51.5h-9.5l-5-13.5H519l-5.3 13.5h-9.3zm32.3-21.1c-4.8-13.2-6.3-17.5-7.4-21.1-1.2 3.5-2.5 7.5-7.8 21.1h15.2zM562.1 82.7V31.2h9.6v43.7l25.7-.3v8.1zM2.6 5.5 54.2 57 2.6 108.4h114V5.5H2.6zm102.9 91.9H28.6L69.3 57 28.6 16.5h76.9v80.9zM257.8 60.4c7.6-2.5 10.6-7.9 10.6-14.5 0-7.1-3.7-11.6-9.1-13.3-3.2-1-7.8-1.4-12.2-1.4H231.2v51.5h8.8l-.1-21 3-.2c3.9 0 5.8.4 6.7.3l11.5 20.9h9.8l-13.1-22.3zm-2.3-7.1c-2.1 1.2-5.2 1.5-8.9 1.5h-6.5V38.5h6.7c3.5 0 6.1.1 8.2.9 2.7 1 4.2 3.5 4.2 7-.2 3.1-1.3 5.7-3.7 6.9z"/>
</svg>
