<svg xmlns="http://www.w3.org/2000/svg" fill="none" viewBox="0 0 100 100">
  <mask id="a" width="100" height="100" x="0" y="0" mask-type="alpha" maskUnits="userSpaceOnUse">
    <path fill="#fff" fill-rule="evenodd" d="M70.9119 99.3171c1.575.6136 3.3709.5743 4.9606-.1907l20.5883-9.9067C98.6242 88.1787 100 85.9892 100 83.5872V16.4133c0-2.402-1.3757-4.5915-3.5391-5.6325L75.8725.87376c-2.0863-1.00389-4.5279-.758-6.359.57319a6.2422 6.2422 0 0 0-.7445.63646L29.3551 38.0415 12.1872 25.0096c-1.5982-1.2131-3.83357-1.1137-5.31787.2365l-5.5063 5.0088c-1.81558 1.6515-1.81766 4.5078-.0045 6.1621L16.2471 50.0001 1.35853 63.5832c-1.81316 1.6542-1.81108 4.5106.0045 6.1621l5.5063 5.0088c1.4843 1.3502 3.71967 1.4496 5.31787.2364l17.1679-13.0318 39.4139 35.958c.6235.6239 1.3556 1.0937 2.1429 1.4004Zm4.1033-72.0182L45.1091 50.0001l29.9061 22.7011V27.2989Z" clip-rule="evenodd"/>
  </mask>
  <g mask="url(#a)">
    <path fill="#0065A9" d="M96.4614 10.7962 75.8569.87554C73.4719-.27277 70.6217.21161 68.75 2.08333L1.29858 63.5832c-1.81427 1.6541-1.81219 4.5105.0045 6.162l5.50964 5.0088c1.48521 1.3502 3.72198 1.4496 5.32108.2365l81.2271-61.6206C96.086 11.3026 100 13.2462 100 16.6667v-.2392c0-2.401-1.3754-4.5897-3.5386-5.6313Z"/>
    <g filter="url(#b)">
      <path fill="#007ACC" d="m96.4614 89.2038-20.6045 9.9207c-2.385 1.1485-5.2352.6639-7.1069-1.2078L1.29858 36.4169c-1.81427-1.6542-1.81219-4.5106.0045-6.1621l5.50964-5.0088c1.48521-1.3502 3.72198-1.4496 5.32108-.2365l81.2271 61.6206C96.086 88.6974 100 86.7538 100 83.3334v.2392c0 2.4009-1.3754 4.5896-3.5386 5.6312Z"/>
    </g>
    <g filter="url(#c)">
      <path fill="#1F9CF0" d="M75.8578 99.1263c-2.3857 1.1477-5.2359.6622-7.1078-1.2097 2.3064 2.3064 6.25.6729 6.25-2.5888V4.67213c0-3.26174-3.9436-4.89524-6.25-2.58884C70.6219.2114 73.4721-.27367 75.8578.87363l20.6009 9.90707C98.6234 11.8217 100 14.0112 100 16.4132v67.1739c0 2.402-1.3766 4.5915-3.5414 5.6325l-20.6008 9.9067Z"/>
    </g>
    <path fill="url(#d)" fill-rule="evenodd" d="M70.8511 99.3171c1.575.6135 3.371.5742 4.9606-.1907L96.4 89.2197c2.1634-1.041 3.5392-3.2305 3.5392-5.6326V16.4133c0-2.4021-1.3757-4.5916-3.5391-5.6326L75.8117.8737c-2.0862-1.00389-4.5279-.758-6.359.57318a6.24322 6.24322 0 0 0-.7445.63647L29.2943 38.0414 12.1264 25.0096c-1.5981-1.2132-3.83355-1.1137-5.31785.2364l-5.5063 5.0088c-1.81558 1.6516-1.81766 4.5079-.0045 6.1621L16.1863 50 1.29775 63.5832c-1.81316 1.6542-1.81108 4.5105.0045 6.162l5.5063 5.0088c1.4843 1.3502 3.71975 1.4496 5.31785.2365l17.1679-13.0319 39.4139 35.9581c.6235.6238 1.3556 1.0937 2.1429 1.4004Zm4.1033-72.0182L45.0483 50l29.9061 22.7012V27.2989Z" clip-rule="evenodd" opacity=".25" style="mix-blend-mode:overlay"/>
  </g>
  <defs>
    <filter id="b" width="116.727" height="92.2456" x="-8.39411" y="15.8291" color-interpolation-filters="sRGB" filterUnits="userSpaceOnUse">
      <feFlood flood-opacity="0" result="BackgroundImageFix"/>
      <feColorMatrix in="SourceAlpha" values="0 0 0 0 0 0 0 0 0 0 0 0 0 0 0 0 0 0 127 0"/>
      <feOffset/>
      <feGaussianBlur stdDeviation="4.16667"/>
      <feColorMatrix values="0 0 0 0 0 0 0 0 0 0 0 0 0 0 0 0 0 0 0.25 0"/>
      <feBlend in2="BackgroundImageFix" mode="overlay" result="effect1_dropShadow"/>
      <feBlend in="SourceGraphic" in2="effect1_dropShadow" result="shape"/>
    </filter>
    <filter id="c" width="47.9167" height="116.151" x="60.4167" y="-8.07558" color-interpolation-filters="sRGB" filterUnits="userSpaceOnUse">
      <feFlood flood-opacity="0" result="BackgroundImageFix"/>
      <feColorMatrix in="SourceAlpha" values="0 0 0 0 0 0 0 0 0 0 0 0 0 0 0 0 0 0 127 0"/>
      <feOffset/>
      <feGaussianBlur stdDeviation="4.16667"/>
      <feColorMatrix values="0 0 0 0 0 0 0 0 0 0 0 0 0 0 0 0 0 0 0.25 0"/>
      <feBlend in2="BackgroundImageFix" mode="overlay" result="effect1_dropShadow"/>
      <feBlend in="SourceGraphic" in2="effect1_dropShadow" result="shape"/>
    </filter>
    <linearGradient id="d" x1="49.9392" x2="49.9392" y1=".25781" y2="99.7423" gradientUnits="userSpaceOnUse">
      <stop stop-color="#fff"/>
      <stop offset="1" stop-color="#fff" stop-opacity="0"/>
    </linearGradient>
  </defs>
</svg>
