<svg xmlns="http://www.w3.org/2000/svg" width="124" height="32" fill="none">
  <path fill="#2E3038" d="M8.53683 26.5292c-.9083 0-1.7301-.5645-2.03287-1.4329L.14583 8.46676C-.28669 7.33786.2756 6.0787 1.40016 5.6445c1.12456-.43419 2.37889.13026 2.81142 1.25916l4.282 11.24564L12.7756 6.90366c.3028-.86838 1.1246-1.43283 2.0329-1.43283.9083 0 1.7301.56445 2.0328 1.43283l4.282 11.24564 4.282-11.24564c.4326-1.1289 1.6869-1.69335 2.8115-1.25916 1.1245.4342 1.6868 1.69336 1.2543 2.82226L23.1995 25.0963c-.3028.8684-1.1246 1.4329-2.0329 1.4329-.9083 0-1.7301-.5645-2.0329-1.4329l-4.282-11.2456-4.282 11.2456c-.346.8684-1.12456 1.4329-2.03287 1.4329ZM74.5835 9.8562H61.9538c-1.2111 0-2.2059-.99865-2.2059-2.21438 0-1.21574.9948-2.21439 2.2059-2.21439h12.6297c1.2111 0 2.2059.99865 2.2059 2.21439 0 1.21573-.9948 2.21438-2.2059 2.21438ZM71.5558 18.1927H61.997c-1.2111 0-2.2059-.9987-2.2059-2.2144 0-1.2158.9948-2.2144 2.2059-2.2144h9.5588c1.2111 0 2.2059.9986 2.2059 2.2144 0 1.2157-.9948 2.2144-2.2059 2.2144ZM74.6268 26.5292H61.997c-1.2111 0-2.2059-.9987-2.2059-2.2144s.9948-2.2144 2.2059-2.2144h12.6298c1.2111 0 2.2059.9987 2.2059 2.2144s-.9948 2.2144-2.2059 2.2144ZM95.9935 9.8562H83.3638c-1.2111 0-2.2059-.99865-2.2059-2.21438 0-1.21574.9948-2.21439 2.2059-2.21439h12.6297c1.2111 0 2.2059.99865 2.2059 2.21439 0 1.21573-.9948 2.21438-2.2059 2.21438ZM92.9226 18.1927h-9.5588c-1.2111 0-2.2059-.9987-2.2059-2.2144 0-1.2158.9948-2.2144 2.2059-2.2144h9.5588c1.2111 0 2.2059.9986 2.2059 2.2144 0 1.2157-.9948 2.2144-2.2059 2.2144ZM95.9935 26.5292H83.3638c-1.2111 0-2.2059-.9987-2.2059-2.2144s.9948-2.2144 2.2059-2.2144h12.6297c1.2111 0 2.2059.9987 2.2059 2.2144s-.9948 2.2144-2.2059 2.2144ZM109.142 26.5292c-1.211 0-2.206-.9986-2.206-2.2144V7.68524c0-1.21574.995-2.21438 2.206-2.21438 1.211 0 2.206.99864 2.206 2.21438v7.22816l.073-.0719c.087-.1516.192-.2949.316-.4263.152-.1524.32-.2781.499-.3773l8.022-7.91572c.865-.86838 2.249-.82496 3.114.04342.865.86839.822 2.2578-.043 3.12619l-6.803 6.73541 6.76 6.6811c.865.8684.865 2.2578.043 3.1262-.432.4776-.995.6947-1.557.6947-.562 0-1.124-.2171-1.557-.6513l-6.825-6.7456-2.042 2.0219v3.1606c0 1.2158-.995 2.2144-2.206 2.2144Z"/>
  <path fill="#6788F3" d="M96.2098 32H40.414c-4.109 0-7.4395-3.3433-7.4395-7.4681V7.46811C32.9313 3.34328 36.305 0 40.414 0h55.8391c4.1089 0 7.4389 3.34328 7.4389 7.46811V24.5319c0 4.1248-3.373 7.4681-7.4822 7.4681ZM40.414 2.17096c-2.8979 0-5.2768 2.38806-5.2768 5.29715V24.5319c0 2.9091 2.3789 5.2971 5.2768 5.2971h55.8391c2.8979 0 5.2769-2.388 5.2769-5.2971V7.46811c0-2.90909-2.379-5.29715-5.2769-5.29715H40.414Z"/>
  <path fill="#6788F3" d="M53.2168 22.1438H40.587c-.1297 0-.2595 0-.4325.0434-.9948.1737-1.7734 1.0855-1.7734 2.171s.7786 1.9539 1.7734 2.171c.1298.0434.2595.0434.4325.0434h12.6298c1.211 0 2.2059-.9987 2.2059-2.2144 0-1.2592-.9949-2.2144-2.2059-2.2144ZM40.1978 9.81277c.1297.04342.2595.04342.4325.04342h12.5865c1.211 0 2.2059-.99864 2.2059-2.21438 0-1.21574-.9949-2.21439-2.2059-2.21439H40.587c-.1297 0-.2595 0-.4325.04342-.9948.17368-1.7734 1.08549-1.7734 2.17097.0433 1.08548.7786 1.99728 1.8167 2.17096ZM40.1978 18.1492c.1297.0435.2595.0435.4325.0435h9.5588c1.2111 0 2.2059-.9987 2.2059-2.2144 0-1.2158-.9948-2.2144-2.2059-2.2144H40.587c-.1297 0-.2595 0-.4325.0434-.9948.1737-1.7734 1.0855-1.7734 2.171.0433 1.0855.7786 1.9973 1.8167 2.1709Z"/>
</svg>
