<svg xmlns="http://www.w3.org/2000/svg" id="图层_1" data-name="图层 1" viewBox="0 0 76.11 115.25">
  <defs>
    <style>
      .cls-1{fill:#d61f26;fill-rule:evenodd}
    </style>
  </defs>
  <path d="M31.95 32.49c2.66.19 5.95.24 7.45-2.28a31.86 31.86 0 0 1 3.8 1.77c2.42-1.82 4.83-2.27 7.25-3.78 7.83 5.72 13 15.78 13.55 24.34.54 3 1.49 2.78 3.37 5.39a10.32 10.32 0 0 0 2 1.88c.35.34 1.43 1 .74 1.72s-1.16-.07-1.6-.7a10.21 10.21 0 0 0-1.64-2c-2-1.71-2.35-1.37-2.51-1a6.34 6.34 0 0 0 1.9 2.31 2.87 2.87 0 0 1 .44.31c.1.11.25.42.12.55s-.45 0-.56 0a1.86 1.86 0 0 1-.38-.46c-.64-.8-2.21-2.89-3.4-1.9-1.43 1.18-3.48 1.86-5.29 3.39-1.32 1.11-1.89 2.74-2.67 4.2-.26.48 1.88 2.83 5.31 7.07.64.8 1.78 1.44 2.24 2a.71.71 0 0 1 0 1 .7.7 0 0 1-1.11 0c-.5-.46-.91-1.75-1.66-2.51-3.74-3.72-5.67-5.57-7.52-4.55-4.76 3.4-11.12 2-16.76.29-1.52-.07-3.82 1.12-4.66-1.3 2.53-1.58 1.89-5.89 4.15-8.25 6-6.24 10.72-4.39 15.27-3.73.12-1.09 1.59-1.62 2.35-1.9-.45-4.1-2.08-13.46-8.38-11.93-.37-.49.6-1 .23-1.48-1.6.4-2.26 2.19-3.43 3.8-7.37 10.09-19 4-17.93-3 3.27-2.22 8.76-5.44 9.33-9.25Zm-10.18 2.75c-.35-1.28-1.51-2.37-3.81-3.13-1.33-3.21-6-5.48-7.29-7.39-.9-3.24-5.32-7.14-8.3-7.49a3.92 3.92 0 0 0-2.34 2.75c-.56 2.48 8.46 10.89 14.93 15.09 2.16 1.81 2.1 3 4 4.63 1.49 1.48 3.15-3.22 2.81-4.46Zm1.39-13.56a49.29 49.29 0 0 0-3.05-7.16A36.28 36.28 0 0 0 11.28 4.2c-2.1 0-3.43 1-3.43 2.38 0 5.74 9.64 11.73 13.72 17.51 1.66 2.34 3.2 6.94 6.61 5.81 2.57-2.33-1.86-7.59-5.02-8.22Zm18.49 6.3a3.21 3.21 0 0 1-.59-.54c-.89-1.33-2.33-2.85-2.61-3.92s1-1.21-3.77-9c-3.13-5.23-3.65-12.89-9.9-14.54-1.16.45-2.62 2-2.66 3 1.11 4.22 5 7.36 7.16 11.23.57 1 .6 2.5 1.23 3.45s1.47 1.16 1.91 1.95c1.24 2.24 1 5.47 3.78 6.47a9.62 9.62 0 0 1 2-.94 20.63 20.63 0 0 1 2.63 2.41 5.91 5.91 0 0 1 .41.69c.13.17.34.24.46.09s.1-.26-.05-.35Zm11.64-2.48c-.35-.34-.74-.29-1.23-1a5.34 5.34 0 0 1-.95-1.96c.6-3.28-.29-7.08-1.51-10.31.24-1.87 1-5.57-.78-7.64-5-5.67-6.79 5.82-1.77 8.48-.14 3 1.74 6.09.55 9.12 1.32 1.29.68 2.55 2.09 3.84a8 8 0 0 0 .86-1.57c.07-.17.91.34 1.28.78s.45.76.71 1.08.67.39.89.12a.72.72 0 0 0-.14-.99ZM32.11 81.89a7.31 7.31 0 0 1-2-1.31c-3-3.6-8.82-9.82-8.47-10a6 6 0 0 0 2.47-2.06c.57-.85 2.79 1.65 3.85 2.73.33.34.36.76.72 1.12a.55.55 0 0 0 .7 0 .58.58 0 0 0-.07-.78c-.23-.23-.79-.36-.9-.48-1.08-1.13-2.75-3.24-3.89-4.36-2.85-2.18-7.26-3.57-10.77-.53-2.05 1.77-4 5.71-2.92 7.13s3.85-.42 5.75-1c1-.33 1.94-.59 2.83-.87.16 0 6.44 6.27 10 9.68a7.8 7.8 0 0 1 1.27 2 1.26 1.26 0 0 0 1.54.47c.89-.65.3-1.43-.11-1.74ZM21.51 105.17s-.17 0-.17.1a.84.84 0 0 1-.07.44c-.08.12-.21.13-.21.23a1.62 1.62 0 0 0 .06.27s-.31.52-.42.53-.2 0-.17-.06.13-.19.2-.29a.68.68 0 0 0 .08-.18s-.21-.1-.21-.1a3.72 3.72 0 0 0 .1-.61c0-.21-.13-.36 0-.32s.23.07.24.11.12 0 .1-.08-.14-.14.07-.21a.48.48 0 0 0 .27-.22s.12-7.13.28-7.56l.09-1v-1.7l-.09-.12a1.81 1.81 0 0 0 .11-.35V92.9l-.16.06c-.16.06-.23 0-.2-.16s.1-.13.15-.13h.12a3.16 3.16 0 0 0 .28-.38 2 2 0 0 0 .22-.93c0-.66-.27-.52-.27-.52s-.74-.24-.84-.16-.89-.7-.96-.7-1.88-.75-2.11-.72-.34.85-.07 1.34c0 0 .22 1.14.38 1.66 0 0 .76 1.27.76 1.32s.31.11.31.11-.28.18-.24.23a5.4 5.4 0 0 1 .5 2.07s.13.14.13.21a.83.83 0 0 1-.06.26 1.36 1.36 0 0 1-.22.07l-.14-.07.11.94v.27a6.36 6.36 0 0 0 .27.77V98.9a21.82 21.82 0 0 1-.35 5.81c-.06.32.05.47 0 .72 0 0-.72 2.28-1.14 3.27 0 0-.33 1 .21 1.49l.14.24a4.33 4.33 0 0 1 0 .55 2 2 0 0 0-.06.43.16.16 0 0 0 .14.14c.09 0 .17 0 .18-.13a3.41 3.41 0 0 0-.06-.43 4.15 4.15 0 0 1 0-.62c0-.1.27-.09.38 0a3.63 3.63 0 0 1 0 1.31 1.87 1.87 0 0 0-.09.46c0 .12.06.26.21.27a.24.24 0 0 0 .27-.26 3.54 3.54 0 0 0-.08-.45 5.84 5.84 0 0 1 .34-2.12c.5-.65.14-1 .73-1.16s.66-.37.86-.37.44.06.56.06a.71.71 0 0 0 .35-1 7.69 7.69 0 0 1-.81-1.94ZM36.16 105.08s-.05-1.1-.05-1.21a8 8 0 0 1-.06-.81 2.11 2.11 0 0 0 0-.51 1.52 1.52 0 0 0-.14-.42l-.56-.79v.38a1 1 0 0 0-.11.17s-.15.58-.17.6-.1 0-.1.17.08.57-.07.72-.25.15-.28.21 0 .27 0 .36a.33.33 0 0 1-.06.21s-.15.13-.15.21a1.9 1.9 0 0 1-.13.37l-.1.08v.23l.45.54s-.13.5-1 1.1a3.15 3.15 0 0 1-.21.67c-.11.14-.21.18-.21.2a.64.64 0 0 1 0 .28c0 .1-.06.06 0 .1s-.13.22-.13.3 0 .15-.09.15h-.38s-.06-.39 0-.47.15.08.18-.13a.7.7 0 0 0-.05-.49 2.41 2.41 0 0 1-.19-.27s.12 0 .34-.21-1.06.36-2.07.2l-.18-.06-.21.53s.15.14.17.17a.74.74 0 0 1-.09.21s-.18 0-.18 0v-.23l-.19.1a5.4 5.4 0 0 1-3.36-1.36s-.21.1-.21.21 0 .08-.11 0l-.1-.1h-.54a2.34 2.34 0 0 1 .77-.68l-.47-.13s-.08-.25-.18-.3a1.18 1.18 0 0 1-.28-.12c-.06-.06-.23-.16-.28-.74s0-1.68 0-1.68.18-.06.17-.35a1.18 1.18 0 0 1 .49-1 7.17 7.17 0 0 1 1.31-.51c.41-.18.54-.53 1.1-.57.24 0 1.14-.25 1.4-.23a4.1 4.1 0 0 1 2 .71 11 11 0 0 1 1 .63 2.83 2.83 0 0 1 .92 1.46 1.78 1.78 0 0 1 .1.21l.22-.35.14-.27.06-.33v-.36l.15-.43.36-.34.09-.33a9.15 9.15 0 0 0-1.16-1.68h-.27l-.12-.24a8.7 8.7 0 0 0-1.57-.61c-.51-.16-.66 0-1.38-.1-.37-.06-.78-.49-1.2-.48h-.67a8.77 8.77 0 0 0-1.76.11c-.57.23-.77.72-1.18 1l-.38.26a6.31 6.31 0 0 0-2 2.76 11.59 11.59 0 0 1-.07 1.59s0 .13.08.13a.14.14 0 0 0 .13-.09v.73s-.1 0-.1.18a2.78 2.78 0 0 1 0 .59 5.87 5.87 0 0 0 .23 1.68 8.36 8.36 0 0 0 1.64 2.25h.57s.1.08.12 0 .1-.23.24-.14a5.65 5.65 0 0 0 3.52 1.63h.94l.14-.1a.16.16 0 0 0 .17.1h1.2l.07-.17.17-.08v-.59a.18.18 0 0 0 .16-.21c0-.2.06-.32.09-.32a4.38 4.38 0 0 0 0-.51s.42.29.44.52-.08.3-.15.34 0 .32 0 .41-.06.27-.1.27-.1.2 0 .2.4-.26.41 0a3.94 3.94 0 0 1-.06.85 7.22 7.22 0 0 0-.15.87c0 .13 0 .34.25.35s.24-.15.26-.31-.07-.74-.09-.9a6.6 6.6 0 0 1 0-1c0-.17.25-.25.32-.27a.14.14 0 0 1 .19.09 4.06 4.06 0 0 1 0 .64 1.59 1.59 0 0 0-.06.38c0 .1 0 .21.15.22s.19-.09.2-.21a2.5 2.5 0 0 0-.06-.38v-.74c0-.3.28-.22.3-.27a1.51 1.51 0 0 0 .06-.34 1.83 1.83 0 0 0 .46-.49l.06-.65v-.19l.1-.43.13-.15v-.76l.13.06v1.34s-.09.16-.08.19a2.94 2.94 0 0 1 0 .42s.41-.53.46-.61a1.35 1.35 0 0 0 0-.82c-.11-.28.07-.19.31-.54s.13-1.12.18-1.48ZM48.65 100.2a.79.79 0 0 0-.23-.09l-.07-.12a2.16 2.16 0 0 0-.26-.39c-.11-.12-1.98-1.62-1.98-1.62s-1.82-.42-2-.42-.19-.08-2.65.5l-.49-.21a.17.17 0 0 0-.1 0s0 .06 0 .06a6.88 6.88 0 0 1 1 2 7.61 7.61 0 0 1 .24 1.07c.43.27.92 1.25.47 1.43-.52 0-.6-.77-.78-1.19-.41-1-1.63-2.42-1.46-3.22l-.33.1-.71.3a10 10 0 0 0-2 2l.07.29v.18l.15.1-.12 1-.09-.28s-.25-.38-.27-.35 0 .87 0 .87l-.15.26s.07.71.08.78-.16.31-.14.37a.49.49 0 0 1 0 .3c0 .18-.1.27 0 .45a1.79 1.79 0 0 1 .28.61c0 .16-.07.29 0 .4s0 .05.24.25.17.78.19.78.51.75.65 1a1.17 1.17 0 0 1 .41-.27 1.32 1.32 0 0 1 1.59.31 3.6 3.6 0 0 1 .51 1c.14.07.07.21 0 .08l-.29-.27c0 .06-.26-.1-.3-.16a.86.86 0 0 1-.44.15H38.99c.14.16 1.19 1.27 1.24 1.31s.17 0 .13-.15-.31-.43-.28-.47-.06-.21.12-.13a1.69 1.69 0 0 1 .58.44s.37.56.6.58.22.11.37.11.42.18.75.23.48.23.64.24a1.32 1.32 0 0 1 .67.32c.2.17.41.29.51.25s.33 0 .34-.13.3 0 .3 0a.44.44 0 0 1 .25-.2c.19-.08.16-.32.19-.34s.11-.14.13-.12a2.06 2.06 0 0 0 .32.41v-.06c-.43-.74-.66-1.11-1-1.07a3.33 3.33 0 0 1-2.5-.91c-.23-.1-.61-.06-.65-.45a.53.53 0 0 0 .26-.15c-.12 0-.94-.11-.94-.11a3.67 3.67 0 0 0 .46-.14 4.63 4.63 0 0 0 .37-.33s.35-.11.37-.18a1.63 1.63 0 0 0-.17-.45s.23-.21.24-.27 0-.09 0-.15a1.59 1.59 0 0 0-.08-.18 2.3 2.3 0 0 1-.07-.26 1.58 1.58 0 0 0-.13-.22 2.19 2.19 0 0 0-.1-.26l-.07-.19a1.21 1.21 0 0 1-.42-1.3c.55-.11 1.48-.26 1.69-.76.39.17.87.37 1.18.09.18.13.34.31.51.46.42-.12.79 0 1.2-.12a5.87 5.87 0 0 1 1.11 4.1c0 .45.13.47.32 1a1.76 1.76 0 0 0 .22.36.19.19 0 0 1 .09 0c.24-.07.19-.11.4-.13s.32.1.38 0-.07-.21 0-.44a7.2 7.2 0 0 0 1.59-3.97 8.08 8.08 0 0 0-1.2-4.08 2.8 2.8 0 0 1-.26-.23Zm-8.5.54c.13.34.73.93.83 1.45a1 1 0 0 1 .46.66c0 .19-.34.73-.51.44s-.19-.5-.45-.88c-.8-1-1.85-2.65-1.71-3a.41.41 0 0 1 .4-.24 2.54 2.54 0 0 1 .94 1.57Zm4.18 1.38a4.48 4.48 0 0 0 .26.7.43.43 0 0 0 .07.1s0 .06 0 .07 0 0-.06 0 0-.08 0-.12a5.25 5.25 0 0 0-.31-.48 1.28 1.28 0 0 0-.33 0c-.37-.29-.24-.73-.35-1.11 0-.14-.16-.24-.21-.38s0-.38-.08-.55a9.54 9.54 0 0 1-.69-2c0-.15.3-.27.48-.27.86.59.7 1.68 1 2.58.4 1.32.22 1.32.22 1.46Zm2.19-2.06a1.42 1.42 0 0 1-.14 1.13 2.82 2.82 0 0 1-.11 1.54s0 .13.12.31.21.13.25.2.07.12 0 .14a.13.13 0 0 1-.16-.06.76.76 0 0 0-.11-.16c-.07-.07-.26-.21-.28-.19a.77.77 0 0 1-.18.18c-.17-.26 0-.41-.18-.67.27-.36.09-.89.21-1.32-.63-.66.02-2.18.58-1.1Z" class="cls-1"/>
  <path d="M44.36 107.07s.1.16.22.19.23 0 .29 0 .11.17.14.17.17-.16.17-.16l.22.06a1.1 1.1 0 0 0 0-.44.82.82 0 0 0-.12-.25s.08-.18.11-.2-.21-.24-.24-.27a.66.66 0 0 1-.04-.19c0-.09 0-.2-.05-.18a8.61 8.61 0 0 0 0 1s-.06.18-.13.11-.19-.11-.14-.18.18-.12.14-.16-.15-.21-.25-.25a1.46 1.46 0 0 1-.23-.06c-.05 0-.14-.08-.14-.12s.11-.11.16-.24.1-.19 0-.25a.54.54 0 0 0-.22-.12v-.11s.07 0 0-.06a.61.61 0 0 0-.19 0s0 0 0-.06a1 1 0 0 1-.09-.14.68.68 0 0 0-.3.13c-.06.06-.11 0-.11.1a.35.35 0 0 0 .1.2 1.09 1.09 0 0 1 .12.26s.27.3.29.34 0 0 0 .1.15.15.15.15l-.15.16s.27 0 .27.1a3.07 3.07 0 0 1 .02.37ZM47.02 108.45a1.31 1.31 0 0 0 .21.43l.06.07v.08c0 .01-.07 0-.09 0a.41.41 0 0 1 0-.09c-.07-.15-.23-.53-.44-.46s-.58.07-.9.18a1.54 1.54 0 0 0-.54.44 5.72 5.72 0 0 0 .56 1.31l.14.22c.31.09.29.22.51.14a4.57 4.57 0 0 1 .45-.16l.3.08a.27.27 0 0 0 .29-.11c.1-.11-.15-.9-.15-1s.15-.2.21-.29a.61.61 0 0 1-.07-.14 1.76 1.76 0 0 0-.18-.37c-.27-.4-.27-.37-.36-.33Z" class="cls-1"/>
  <path d="M44.75 105.54h-.08a1 1 0 0 0 0 .26s.11 0 .1-.08-.02-.16-.02-.18ZM17.44 103.54c-.19-.91-.82-.92-.82-.92s.4-.3.42-.3.08-.54.2-.68-.69-1-1.28-1c0 0-.48-.72-.7-.81a9.92 9.92 0 0 1-1.22-1.3s-1.16-.33-1.49-.49l-1.12.17s-.43 0-.46.09-.59-.26-.59-.26a8.36 8.36 0 0 0-1.14.2c-.14.08-.61-.06-.61-.06a4.85 4.85 0 0 0-1.3.83l-.58 1a2.3 2.3 0 0 1-.63.13c-.23 0-.16-.57-.13-.75s0-.48 0-.82.16-1 .18-1.47c0-.19-.2-.37-.2-.56s.23-.66.24-1 0-.61 0-.89-.1-.87-.1-1.15a11.66 11.66 0 0 1 .56-2.32s-1.41-1.12-1.83-.85c-.57.37-1-.22-2-.72-.38-.2-.62-.56-.7-.52s-.68-.12-.75.13c0 .07 1.23 2.47 1.21 3.45 0 .26-.6.82.13 1.68a2.9 2.9 0 0 1 .5.53c.08.09-.17.21-.3.36v.17c.07.08.21.15.31.25s.29-.24.29-.24a20.69 20.69 0 0 1-.09-2.39c.1 0 .07.2.13.41a1.24 1.24 0 0 0 .24.48c.06.06.6.57.55.62s-.25.44-.25.44a1.77 1.77 0 0 1 .27.57 2.53 2.53 0 0 1-.06 1c-.06 0-.5-.14-.5-.14s-.33.41-.4.39-.2-.26-.33-.4a.31.31 0 0 0-.18-.09 9.43 9.43 0 0 0-.21 1c0 .37.58.09.57.43 0 .15-.21.86-.2 1 0 0 .07.5.09.53s0 .14 0 .16-.06 0 0 .18a2.16 2.16 0 0 1 .09.62 2.52 2.52 0 0 1 0 .58 4.66 4.66 0 0 0-.16 1.79l-.26.43a.81.81 0 0 0 .46 0l.07.06a.58.58 0 0 0-.12.51 6.53 6.53 0 0 0 .29 1.57 4.86 4.86 0 0 0-.19 1s.08-.1.1.16.11.46-.49 1.36c0 0-.3.43.15 1.13 0 0-.14.31-.14.41a1.85 1.85 0 0 1 0 .23c0 .11-.58.56-.55.61s0 .58.24.65a1.17 1.17 0 0 1 .38.68 10.28 10.28 0 0 1-.12 2 3.26 3.26 0 0 0-.12.74.72.72 0 0 0 .11.35.3.3 0 0 0 .41 0 .52.52 0 0 0 .15-.36 3.58 3.58 0 0 0-.11-.73 9.66 9.66 0 0 1-.08-2.32.79.79 0 0 1 .25-.39l.18-.09c.4-.18.59-.29.83-.26s.33.2.49.24 0 0 .27 0a.77.77 0 0 1 .43 0c.09 0 .11-.08.37-.14s.19 0 .55 0c0 0-.36-.19-.34-.33s0-.17 0-.25-.66-.78-.66-.78a2.3 2.3 0 0 0-.27-.59.93.93 0 0 1-.24-.46c0-.13-.07-.8.07-.93s.4.34.44.38a5.72 5.72 0 0 1 .65.33c.11.12 0 .13 0 .13a1.79 1.79 0 0 1 .44.07c.16.06 0 .15 0 .15l-.09.24a1.31 1.31 0 0 1 .51.28c.12.15 0 .3-.1.59s-.35.46-.36.56.2.21.31.28.31.06.54.15.47.46.56.56l.27-.06a9.29 9.29 0 0 1 0-1.78c.09-.06.06.2.12.41a1.32 1.32 0 0 0 .24.48c.07.06.61.57.55.62l-.06.08h.45a5.32 5.32 0 0 0 .87-.09 10.12 10.12 0 0 0 1.55-.36 5.08 5.08 0 0 1 .82-.24c.33 0 .57.1.73 0s0-.13.21-.23c1-.5 1 .31 1.47.31s.3-.63.77-1.58a25 25 0 0 0 1.31-3s0 1.11.26.59a4.87 4.87 0 0 0-.22-2.43Zm-2.63 1.3a10 10 0 0 1-.62 1.7 2.13 2.13 0 0 1-.47.58s-.42.14-.39.45c0 0-1.33 1.25-1.34 1.22a.76.76 0 0 0-.5-.07c-.16.07-.3.26-.44.25a.48.48 0 0 1-.43-.21 6.07 6.07 0 0 1-1.41.29c-.55-.2-1.09-.55-1.42-.5 0 0-.32 0-1.1-.8s-.67-1-.56-1.75-.72-1.24-.72-1.24a3.29 3.29 0 0 1 .3-.47c.1-.09.1-.26.16-.43a2.1 2.1 0 0 1 .32-.69c.17-.21.24-.23.24-.31s-.13-.09-.11-.17a.6.6 0 0 1 .25-.22c.06 0 0 0 0 .15s.81-.48 1.06-.61a.1.1 0 0 0 .09-.07 7.52 7.52 0 0 1 1.59-1.22c.34-.07.52-.14.72 0 0 0 .09.16.18.23a1.71 1.71 0 0 1 .14.11 3.62 3.62 0 0 1 0 .6 1.43 1.43 0 0 0-.06.35c0 .09 0 .19.15.2s.17-.08.18-.19a1.86 1.86 0 0 0 0-.34 5.16 5.16 0 0 1 0-.69.18.18 0 0 1 .14 0 3.57 3.57 0 0 1 .27.82v.45a2.33 2.33 0 0 0-.08.46c0 .12.05.26.2.27s.23-.11.24-.26a3.5 3.5 0 0 0-.07-.45 14.06 14.06 0 0 1 0-1.93h.34a2.3 2.3 0 0 1 1.18.18c.25.17.66.49.66.49s.05.12 0 .14.15 0 .15 0 .24.29.34.38a1 1 0 0 0 .23.14s0 .13 0 .17.44 1 .55 1.43a4.24 4.24 0 0 1 .04 1.56ZM64.37 109.4c-.23-.46-1.36-1.23-1.49-1.76-.06-.24-.25-.75-.31-1-.27-1.11-.49-2-.49-2.13s.13-2 .12-2.22.18-.26.18-.26v-.28l-.17-1.51-.09-.09.14-.09a3 3 0 0 1-.11-.3.77.77 0 0 1 0-.23v-.14l-.22-.06v-1.21a1.3 1.3 0 0 1-.2-.15c-.1-.1 0-.11 0-.11l.1-.16a1.65 1.65 0 0 1-.33-.39c-.06-.16 0-.24.14-.42s.3-.24.32-.31-.12-.24-.19-.33-.21-.15-.35-.3a2.3 2.3 0 0 1-.33-.64c-.05-.1.16-.1.25-.19s-.08-.23-.17-.42-.23.09-.23.09a15.65 15.65 0 0 1-.22 1.89c-.07 0 0-.18 0-.37a1.49 1.49 0 0 0-.12-.45 4.32 4.32 0 0 1-.31-.68c.05 0 .26-.22.23-.27a2.22 2.22 0 0 1-.13-.54 2.46 2.46 0 0 1 .16-.78l.34.28s.27-.2.32-.16a3.73 3.73 0 0 1 .18.43c.08.15.26.18.45.32a.8.8 0 0 1 .27.52c0 .1-.17.44-.17.57s.12.19.23.28a10.81 10.81 0 0 1 .43-1.61h.16a.69.69 0 0 1 0-.13s.09 0 .09 0v.13c0 .03.17.09.19 0a1.06 1.06 0 0 0 0-.15l-.31-1a9.2 9.2 0 0 1 .27-1.4s.18-.51-.12-.63l-1.77-.67-.13.17-.59-.41v-.27l-.69-.69s-.7 0-.72-.17l.11-.21-.5-.39s-.28-.2-.45 0l-.3.41.05.13s-.14.13-.14.21-.05.36-.05.36a.76.76 0 0 0 .08.5c.13.31.33.75.33.75a1.31 1.31 0 0 1 .07.19.3.3 0 0 0 .14.27l.2.12v.33l.38.81.06.55.16.1a.76.76 0 0 1 .28.42 31.3 31.3 0 0 0 .32 5.29l.31.14-.26 2.38.25 1.39a16.75 16.75 0 0 0-.32 2.61c0 .32.25.67 0 1.07-.1.18.05.36-.14.56s-.58.29-.77.44a3.32 3.32 0 0 1-.36.26c-.35.24 0 .26-.66.33-.21 0-.41.33-.63.34s-.49.25-.74.22-.51-.32-.87-.42-.67.1-.88 0-.21-.25-.45-.4a6.11 6.11 0 0 1-.57-.67c-.19-.19-.62-.15-.75-.39a2.94 2.94 0 0 1-.37-1.49s-.43-2.16.21-2.24l.12-.05.28-.61.3-.47.67-.08.52-1.38s.42-.2.49-.13c.38.38 0 1.27.1 1.86 0 .2.1.34.19.34s.16-.11.2-.27c.16-.59-.28-1.9.13-1.9s.18 1 .48 1 .14-.67.25-.69.33.21.33.23.09.23.09.25a.74.74 0 0 0 .2.4c.11.11.3.16.41.27a.89.89 0 0 0 .31.22l.32.02.18.12s.65-.22.73-.62a.58.58 0 0 0-.16-.59s.24-.82.28-1-.5-.62-.86-.73a2.29 2.29 0 0 1-.48-.2s-.52-.5-.61-.48-1.33 0-1.33 0a6.56 6.56 0 0 0-2.21.5 3.32 3.32 0 0 1-1.18 1l-1 1.09-.27 1.16a2.61 2.61 0 0 0-.38 1.24s0 .37 0 .4.09.18 0 .35a.61.61 0 0 0 0 .27s-.15.11-.15.11-.14 0-.13.08.09.16.11.16 0 0 .05.16a1 1 0 0 1 0 .36h-.2s0 1.29.33 1.67c0 0 .54 1 .59 1.06.35.35.2.9.67 1.26a9.08 9.08 0 0 0 2.14 1.08c1 .53 1.71 0 3 .21a6 6 0 0 0 2.23-.1l.36.35a.87.87 0 0 1 .19.39 4.73 4.73 0 0 1 0 1 1.37 1.37 0 0 0-.08.35c0 .09.05.23.19.24a.23.23 0 0 0 .23-.23 2.14 2.14 0 0 0-.06-.35 6.44 6.44 0 0 1 0-1c0-.12.22.08.33.17a9.47 9.47 0 0 1 .15 2.87c0 .26-.12.3-.11.56s.13.44.35.43.29-.17.3-.38-.13-.38-.16-.65a10.93 10.93 0 0 1 .13-3.12s0-.1 0-.13c.08-.22 1.16-.62 1.16-.67a11.42 11.42 0 0 1 1.28.22l.58-.23a.74.74 0 0 0 .07-.96Zm-2.26-13.3h-.07l.05.06a.36.36 0 0 0 .02-.06ZM76.11 93.19c0-.12-.09-1-.46-1-.11 0-1.13.16-1.38.55-.08.13-.67.15-.76.3s-.23.15-.25.19 0 1-.12 1.24c-.2.36-.23.72-.39 1-.24.47-.43.9-.43.9l-1.21 1.66-.11.31s-.61.69-.72.87a5.42 5.42 0 0 1-.65-.4l-.12-.53-.5-.3s-1.9-1.42-2.07-2.16c0 0-1.2-2.73-1.2-2.8-.07-.62-1.18-.76-1.2-.76l-.69.11s-.07.66-.07.68-.37.65-.37.65.34.54.41.71.59.45.59.45a.66.66 0 0 1 .11.19.67.67 0 0 1 0 .19h.13a6.34 6.34 0 0 1 0 1.24 2.94 2.94 0 0 0-.05.51.44.44 0 0 0 .06.23.14.14 0 0 0 .23 0 .44.44 0 0 0 .08-.25 4 4 0 0 0-.07-.5 4.86 4.86 0 0 1-.05-.88l.33.17 1.22 3.13.42.4.2.12v.12l.1.05a6.64 6.64 0 0 0 .25 1.24c.1.1.28-.62.28-.62l.16.06.2.13-.18.12.53.35h.19a.55.55 0 0 0 .18.28c.12.08.13.08.22.06s0 .66 0 .66l-.09.47v1.14l-.17.82a7.93 7.93 0 0 1-.16 1.12l-.08.63s.12.27 0 .41a5.19 5.19 0 0 1-.27.63c-.09.11-.38.64-.42.67s0 .47 0 .47l-.27.23s-.16.52-.07.58-.41.26.12.32c.11 0 0 .12.67.72a2.26 2.26 0 0 1 .36-.27 2.91 2.91 0 0 1 1.15-.33c0 .08-.16.64-.16.64s.45.23.43.32-.2.25-.35.42a4.26 4.26 0 0 0 .77-.13 5.2 5.2 0 0 1 .46.25s.5-.16.68.75a4.92 4.92 0 0 1 0 1.33 2.65 2.65 0 0 0-.07.48.42.42 0 0 0 .08.22.17.17 0 0 0 .25 0 .43.43 0 0 0 .09-.24 2.57 2.57 0 0 0-.08-.47 9.57 9.57 0 0 1 .18-1.57c0-.11.18.3.21.73s0 1-.07 1.46a5.9 5.9 0 0 0-.11.93c0 .25.09.53.31.54s.34-.22.36-.53a4.75 4.75 0 0 0-.13-.91c0-.26-.07-.53-.1-.8 0-.43-.11-4.27-.13-4.29s-.15-.4-.15-.4a.38.38 0 0 1-.12-.19 3.09 3.09 0 0 0-.15-.67l-.24-.41v-.6a.72.72 0 0 1-.11-.15.29.29 0 0 1 .08-.3l-.04-.9v-.35c-.2-.14-.33-.59-.39-.7s.16-.15.32-.23l-.07-.25v-.19c0-.11 0-.86-.07-.89-.1-.21-.33 1-.33 1a19.27 19.27 0 0 1-.59 2.32c-.1 0 0-.21 0-.43a1.27 1.27 0 0 0-.1-.53c0-.08-.42-.72-.35-.75s.4-.32.37-.38a1.61 1.61 0 0 1-.1-.63 2.44 2.44 0 0 1 .34-1l.45.27s.43-.29.5-.26.06.13.1.24a2.32 2.32 0 0 1 .45-.62l.29-1.14s.11-.34.15-.34.13-.09.13-.09h.14l-.2-.23.7-1.52v-.16a.57.57 0 0 0 .12-.07 1.1 1.1 0 0 0 .12-.16s.32-.56.32-.58.16-.32.2-.4a6 6 0 0 0 .27-.69s.38-.52.38-.52a1.71 1.71 0 0 0 .27-.2 2 2 0 0 1 .16-.24v-.14h.15a7 7 0 0 0 .56-.94 5.63 5.63 0 0 0 .21-.99Z" class="cls-1"/>
  <path d="m57.62 99.45.44.15.33.11.54.02.6.25.09.1.87.77.27.72.37.08-.16 1.62-.64-.32-.65.02-.4-.44-.55-.15-.15-.24-.45-.45-.41-1.03-.1-1.21z" style="fill:#d61f26"/>
</svg>
