<svg xmlns="http://www.w3.org/2000/svg" width="29" height="10" fill="none">
  <mask id="a" width="29" height="10" x="0" y="0" fill="#000" maskUnits="userSpaceOnUse">
    <path fill="#fff" d="M0 0h29v10H0z"/>
    <path d="M5.72357 8.79733H1V1.23467h1.06908V7.816h3.65449v.98133ZM7.8192 8.79733H6.80467l-.02182-3.00442H7.8192V8.79733Zm-1.03635-6.56c-.13818-.14222-.20727-.31289-.20727-.512s.06909-.36977.20727-.512C6.92831 1.07111 7.10285 1 7.30648 1c.20363 0 .37818.07111.52363.21333.14545.13511.21818.30578.21818.512 0 .19911-.07273.36978-.21818.512-.14545.13511-.32.20267-.52363.20267-.20363 0-.37817-.06756-.52363-.20267ZM12.6926 5.74667h2.8691c-.0146-.384-.1455-.69689-.3927-.93867-.2473-.24889-.5964-.37333-1.0473-.37333-.4073 0-.7418.13155-1.0036.39466-.2618.256-.4037.56178-.4255.91734ZM15.7144 7.08l.8836.29867c-.1527.47644-.4363.86755-.8509 1.17333-.4145.29867-.9163.448-1.5054.448-.7345 0-1.36-.24533-1.8763-.736-.4543-.44419-.7059-1.02429-.7548-1.74028a3.889 3.889 0 0 1-.0089-.26505c0-.16098.0105-.31623.0315-.46576.0808-.57708.3176-1.06894.7103-1.47558.4946-.512 1.0837-.768 1.7673-.768.7927 0 1.4109.24534 1.8545.736.4436.48356.6655 1.13423.6655 1.952 0 .128-.0073.23467-.0219.32h-3.949c.0073.45512.16.82845.4582 1.12.3054.29156.68.43734 1.1236.43734.7491 0 1.24-.34489 1.4727-1.03467ZM23.7324 8.84l-.84-2.112H19.467l-.8182 2.112h-1.1454l3.0763-7.56267h1.2327l.9893 2.432.3688.90667 1.5935 3.91745.0744.1827.0503.12385h-1.1563Zm-2.4403-6.16304c-.044-.11116-.2015-.11072-.2448.00068l-1.1288 2.90052c-.0335.0862.0301.17917.1226.17917h2.2761c.0928 0 .1564-.09355.1222-.17985l-1.1473-2.90052ZM26.8655 2.088v1.62133H28V4.616h-1.1345v2.66667c0 .24177.0545.41955.1636.53333.1164.11378.3055.17067.5673.17067.1527 0 .2872-.01422.4036-.04267v.85333c-.1745.064-.4073.096-.6982.096-.3063 0-.5689-.05906-.788-.17718a1.24714 1.24714 0 0 1-.2811-.20682c-.2618-.256-.3927-.61511-.3927-1.07733V4.616h-1.0036v-.90667h.2836c.2691 0 .4691-.07111.6-.21333.1382-.14933.2073-.34133.2073-.576v-.832h.9382Z"/>
    <path d="M24.8364 4.616v-.90667h-2.0347l.3688.90667h1.6659ZM9.63765 8.84h1.05815V6.52372h.9148a3.889 3.889 0 0 1-.0089-.26505c0-.16098.0105-.31623.0315-.46576h-.9374V2.89867c0-.32.08-.544.24-.672.1673-.13511.3636-.20267.5891-.20267.1891 0 .3382.02133.4473.064v-.896c-.0946-.07111-.2982-.10667-.6109-.10667-.4946 0-.9055.15645-1.2327.46934-.32732.31289-.49095.74311-.49095 1.29066v2.42163c0 .29047-.23548.52595-.52595.52595h-.26395v.73081h.7899V8.84Z"/>
  </mask>
  <path fill="#4E4E4E" d="M5.72357 8.79733H1V1.23467h1.06908V7.816h3.65449v.98133ZM7.8192 8.79733H6.80467l-.02182-3.00442H7.8192V8.79733Zm-1.03635-6.56c-.13818-.14222-.20727-.31289-.20727-.512s.06909-.36977.20727-.512C6.92831 1.07111 7.10285 1 7.30648 1c.20363 0 .37818.07111.52363.21333.14545.13511.21818.30578.21818.512 0 .19911-.07273.36978-.21818.512-.14545.13511-.32.20267-.52363.20267-.20363 0-.37817-.06756-.52363-.20267ZM12.6926 5.74667h2.8691c-.0146-.384-.1455-.69689-.3927-.93867-.2473-.24889-.5964-.37333-1.0473-.37333-.4073 0-.7418.13155-1.0036.39466-.2618.256-.4037.56178-.4255.91734ZM15.7144 7.08l.8836.29867c-.1527.47644-.4363.86755-.8509 1.17333-.4145.29867-.9163.448-1.5054.448-.7345 0-1.36-.24533-1.8763-.736-.4543-.44419-.7059-1.02429-.7548-1.74028a3.889 3.889 0 0 1-.0089-.26505c0-.16098.0105-.31623.0315-.46576.0808-.57708.3176-1.06894.7103-1.47558.4946-.512 1.0837-.768 1.7673-.768.7927 0 1.4109.24534 1.8545.736.4436.48356.6655 1.13423.6655 1.952 0 .128-.0073.23467-.0219.32h-3.949c.0073.45512.16.82845.4582 1.12.3054.29156.68.43734 1.1236.43734.7491 0 1.24-.34489 1.4727-1.03467ZM23.7324 8.84l-.84-2.112H19.467l-.8182 2.112h-1.1454l3.0763-7.56267h1.2327l.9893 2.432.3688.90667 1.5935 3.91745.0744.1827.0503.12385h-1.1563Zm-2.4403-6.16304c-.044-.11116-.2015-.11072-.2448.00068l-1.1288 2.90052c-.0335.0862.0301.17917.1226.17917h2.2761c.0928 0 .1564-.09355.1222-.17985l-1.1473-2.90052ZM26.8655 2.088v1.62133H28V4.616h-1.1345v2.66667c0 .24177.0545.41955.1636.53333.1164.11378.3055.17067.5673.17067.1527 0 .2872-.01422.4036-.04267v.85333c-.1745.064-.4073.096-.6982.096-.3063 0-.5689-.05906-.788-.17718a1.24714 1.24714 0 0 1-.2811-.20682c-.2618-.256-.3927-.61511-.3927-1.07733V4.616h-1.0036v-.90667h.2836c.2691 0 .4691-.07111.6-.21333.1382-.14933.2073-.34133.2073-.576v-.832h.9382Z"/>
  <path fill="#4E4E4E" d="M24.8364 4.616v-.90667h-2.0347l.3688.90667h1.6659ZM9.63765 8.84h1.05815V6.52372h.9148a3.889 3.889 0 0 1-.0089-.26505c0-.16098.0105-.31623.0315-.46576h-.9374V2.89867c0-.32.08-.544.24-.672.1673-.13511.3636-.20267.5891-.20267.1891 0 .3382.02133.4473.064v-.896c-.0946-.07111-.2982-.10667-.6109-.10667-.4946 0-.9055.15645-1.2327.46934-.32732.31289-.49095.74311-.49095 1.29066v2.42163c0 .29047-.23548.52595-.52595.52595h-.26395v.73081h.7899V8.84Z"/>
  <path fill="#4E4E4E" d="M24.873 4.616v-.90667h-.0732V4.616h.0732ZM11.6383 6.25867c0-.15939.0104-.31294.0311-.46068l-.0725-.01016c-.0212.15132-.0318.30828-.0318.47084h.0732Zm.0088.26255a3.87865 3.87865 0 0 1-.0088-.26255h-.0732c0 .09112.003.1803.009.26754l.073-.00499Zm11.1207-2.79809.3688.90667.0678-.02759-.3688-.90667-.0678.02759ZM5.72357 8.79733v.07322h.07321v-.07322h-.07321ZM1 8.79733H.92678v.07322H1v-.07322Zm0-7.56266v-.07322H.92678v.07322H1Zm1.06908 0h.07321v-.07322h-.07321v.07322Zm0 6.58133h-.07322v.07322h.07322V7.816Zm3.65449 0h.07321v-.07322h-.07321V7.816Zm2.09563.98133v.07322h.07322v-.07322H7.8192Zm-1.01453 0-.07321.00053.00052.07269h.07269v-.07322Zm-.02182-3.00442v-.07322H6.7091l.00054.07375.07321-.00053Zm1.03635 0h.07322v-.07322H7.8192v.07322ZM6.78285 2.23733l-.05258.05109.00275.00256.04983-.05365Zm0-1.024-.0512-.05236-.00131.00134.05251.05102Zm1.04726 0-.05121.05237.00138.00128.04983-.05365Zm0 1.024.04984.05367.00135-.00132-.05119-.05235ZM10.6958 8.84v.07322h.0732V8.84h-.0732Zm-1.05815 0h-.07322v.07322h.07322V8.84Zm.49095-7.28533.0505.05292-.0505-.05292Zm1.8436-.36267h.0732v-.03654l-.0292-.02197-.044.05851Zm0 .896-.0267.06819.0999.03907V2.088h-.0732Zm-1.0364.13867.0458.05717.0002-.00021-.046-.05696Zm1.7568 3.52-.073-.00449-.0048.0777h.0778v-.07321Zm2.8691 0v.07321h.076l-.0028-.07598-.0732.00277ZM15.169 4.808l-.052.05161.0008.00074.0512-.05235Zm-2.0509.02133.0512.05236.0007-.00071-.0519-.05165ZM15.7144 7.08l.0235-.06936-.0694-.02346-.0235.06941.0694.02341Zm.8836.29867.0698.02235.022-.06864-.0683-.02307-.0235.06936ZM15.7471 8.552l.0428.05941.0007-.00049-.0435-.05892Zm-3.3817-.288-.0512.05236.0007.00072.0505-.05308Zm-.0219-3.94667.0527.05087-.0527-.05087Zm3.6218-.032-.0543.04911.0004.00039.0539-.0495Zm.6436 2.272v.07322h.0618l.0104-.06091-.0722-.01231Zm-3.949 0v-.07321h-.0744l.0012.07438.0732-.00117Zm.4582 1.12-.0512.05236.0006.00061.0506-.05297ZM23.7324 8.84l-.068.02706.0183.04616h.0497V8.84Zm-.84-2.112.068-.02706-.0183-.04616h-.0497V6.728Zm-3.4254 0v-.07322h-.0502l-.0181.04677.0683.02645Zm-.8182 2.112v.07322h.0502l.0181-.04677-.0683-.02645Zm-1.1454 0-.0678-.02759-.041.10081h.1088V8.84Zm3.0763-7.56267v-.07321h-.0493l-.0185.04563.0678.02758Zm1.2327 0 .0678-.02758-.0185-.04563h-.0493v.07321ZM24.8887 8.84v.07322h.1089l-.041-.10081-.0679.02759Zm1.9768-6.752h.0732v-.07322h-.0732V2.088Zm0 1.62133h-.0732v.07322h.0732v-.07322Zm1.1345 0h.0732v-.07321H28v.07321Zm0 .90667v.07322h.0732V4.616H28Zm-1.1345 0v-.07322h-.0732V4.616h.0732Zm.1636 3.2-.0529.0507.0017.00165.0512-.05235ZM28 7.944h.0732v-.09327l-.0906.02215L28 7.944Zm0 .85333.0252.06875.048-.01761v-.05114H28Zm-1.7673-.288-.0511.05235.0511-.05235ZM25.84 4.616h.0732v-.07322H25.84V4.616Zm-.12-1.12-.0537-.04973-.0001.00015.0538.04958Zm.2073-1.408v-.07322h-.0732V2.088h.0732ZM11.6332 5.79291v.07322h.0636l.0089-.06306-.0725-.01016Zm-.0226.73081.073-.00499-.0046-.06823h-.0684v.07322Zm-.9148-.73081h-.0732v.07322h.0732v-.07322Zm0 .73081V6.4505h-.0732v.07322h.0732Zm-1.05815 0h.07322V6.4505h-.07322v.07322ZM24.8384 8.71615l-.0679.02759.0679-.02759Zm1.6754 0 .0348-.06444-.0348.06444Zm-1.7498-.1827.0679-.02759-.0679.02759Zm-1.9623-4.82412-.0678.02759.0185.04563h.0493v-.07322Zm.3688.90667v-.07322h-.1088l.041.10081.0678-.02759ZM8.84775 5.79291v-.07322h-.07322v.07322h.07322Zm0 .73081h-.07322v.07321h.07322v-.07321Zm13.59165-.94624-.068.02693.068-.02693Zm-2.5209.00068-.0682-.02655.0682.02655Zm1.1288-2.90052-.0683-.02655.0683.02655Zm.2448-.00068.068-.02693-.068.02693ZM5.72357 8.72412H1v.14643h4.72357v-.14643Zm-4.65035.07321V1.23467H.92678v7.56266h.14644ZM1 1.30789h1.06908v-.14644H1v.14644Zm.99586-.07322V7.816h.14643V1.23467h-.14643Zm.07322 6.65455h3.65449v-.14644H2.06908v.14644ZM5.65035 7.816v.98133h.14643V7.816h-.14643Zm2.16885.90811H6.80467v.14644H7.8192v-.14644Zm-.94131.07269-.02182-3.00442-.14643.00106.02182 3.00442.14643-.00106Zm-.09504-2.93067H7.8192v-.14644H6.78285v.14644Zm.05252-3.67982c-.12484-.12849-.18657-.28083-.18657-.46098h-.14643c0 .21808.07645.40707.22797.56302l.10503-.10204Zm-.18657-.46098c0-.18014.06173-.33248.18657-.46098l-.10503-.10204c-.15152.15595-.22797.34495-.22797.56302h.14643Zm.18524-.45965c.13176-.12883.28792-.19246.47244-.19246V.92678c-.22275 0-.41567.07859-.57481.2342l.10237.1047Zm.47244-.19246c.18452 0 .34068.06363.47244.19246l.10238-.1047c-.15915-.15561-.35207-.2342-.57482-.2342v.14644Zm.4738.19376c.1299.12066.19479.27159.19479.45835h.14643c0-.22568-.08056-.41608-.24156-.56564l-.09966.10729Zm.19479.45835c0 .17893-.06444.33087-.19615.45965l.10238.1047c.15919-.15566.2402-.34506.2402-.56435h-.14643Zm-.19479.45836c-.13153.12217-.28813.18309-.4738.18309v.14644c.22159 0 .41408-.0742.57346-.22224l-.09966-.10729Zm-.4738.18309c-.18567 0-.34227-.06091-.4738-.18309l-.09966.10729c.15938.14804.35187.22224.57346.22224v-.14644Zm3.38932 6.4H9.63765v.14644h1.05815v-.14644Zm-.98493-5.92145c0-.53206.15842-.94149.46823-1.23774l-.1011-.10584c-.34472.32953-.51357.78054-.51357 1.34358h.14644Zm.46823-1.23774c.3124-.29861.7046-.44904 1.1822-.44904v-.14643c-.5115 0-.9411.16245-1.2833.48963l.1011.10584Zm1.1822-.44904c.154 0 .2785.00879.3746.02558.0978.01707.1588.04119.1923.06639l.088-.11703c-.0611-.04592-.1492-.07513-.2551-.09361-.1075-.01878-.2412-.02776-.3998-.02776v.14643Zm.5376.03345v.896h.1465v-.896h-.1465Zm.0999.82781c-.1212-.0474-.2806-.06903-.4739-.06903v.14644c.1849 0 .3236.02104.4206.05897l.0533-.13638Zm-.4739-.06903c-.2413 0-.4541.07276-.6351.21893l.092.11392c.1536-.12406.3335-.18641.5431-.18641v-.14644Zm-.6348.21872c-.1853.14821-.2675.39952-.2675.72917h.1464c0-.31035.0778-.50704.2126-.61483l-.0915-.11434Zm1.8025 3.65038h2.8691v-.14643h-2.8691v.14643Zm2.9423-.07598c-.0152-.40047-.1525-.73187-.4147-.98825l-.1024.1047c.2323.22717.3568.52156.3707.88909l.1464-.00554Zm-.414-.9875c-.2646-.26637-.6346-.39495-1.0992-.39495v.14644c.4372 0 .7654.12031.9953.35171l.1039-.1032Zm-1.0992-.39495c-.4247 0-.7786.13791-1.0555.41624l.1038.10329c.2467-.24789.5618-.37309.9517-.37309v-.14644Zm-1.0548.41553c-.2744.2683-.4244.59098-.4473.9652l.1461.00897c.0207-.33689.1543-.62576.4036-.86946l-.1024-.10471Zm2.6241 2.37238.8836.29867.0469-.13872-.8836-.29867-.0469.13872Zm.8373.20696c-.1479.46134-.4221.83982-.8246 1.13676l.0869.11784c.4265-.31462.7196-.71836.8772-1.2099l-.1395-.0447Zm-.824 1.13628c-.4002.28836-.8864.43418-1.4626.43418v.14644c.602 0 1.1194-.15284 1.5482-.46181l-.0856-.11881Zm-1.4626.43418c-.7164 0-1.3236-.23856-1.8259-.71586l-.1009.10616c.5305.50404 1.1741.75614 1.9268.75614v-.14644ZM12.3962 4.3682c.4814-.49838 1.0517-.74565 1.7146-.74565v-.14643c-.7044 0-1.3122.26472-1.8199.79035l.1053.10173Zm1.7146-.74565c.7765 0 1.3732.2396 1.8002.71189l.1086-.09821c-.4602-.50905-1.0999-.76011-1.9088-.76011v.14643Zm1.8006.71228c.4283.46694.6461 1.09835.6461 1.9025h.1465c0-.83139-.2259-1.50132-.6847-2.00149l-.1079.09899Zm.6461 1.9025c0 .12564-.0071.22786-.0207.3077l.1443.02461c.0155-.09083.0229-.20194.0229-.33231h-.1465Zm.0514.24679h-3.949v.14643h3.949v-.14643Zm-4.0222.07438c.0075.47247.1669.86484.4802 1.17118l.1024-.1047c-.2831-.27676-.4292-.63106-.4362-1.06882l-.1464.00234Zm.4808 1.1718c.3198.30526.7128.45758 1.1742.45758v-.14643c-.4258 0-.782-.13923-1.0731-.41708l-.1011.10593Zm1.1742.45758c.3858 0 .7115-.08892.9721-.27197.2607-.18317.4497-.45607.57-.8125l-.1388-.04682c-.1124.33335-.2852.57779-.5154.7395-.2304.16184-.5246.24536-.8879.24536v.14643Zm9.5587.62506-.84-2.112-.136.05412.84 2.112.136-.05412Zm-.908-2.15816H19.467v.14644h3.4254v-.14644Zm-3.4937.04677-.8181 2.112.1365.0529.8182-2.112-.1366-.0529Zm-.7499 2.06523h-1.1454v.14644h1.1454v-.14644Zm-1.0776.10081 3.0763-7.56267-.1356-.05517-3.0763 7.56266.1356.05518Zm3.0085-7.51704h1.2327v-.14643h-1.2327v.14643Zm4.309 7.41623h-1.1563v.14644h1.1563v-.14644ZM20.979 2.65109l-1.1287 2.90052.1365.0531 1.1287-2.90051-.1365-.05311Zm-.9379 3.17946h2.2761v-.14643h-2.2761v.14643Zm2.4664-.28-1.1474-2.90052-.1361.05386 1.1474 2.90052.1361-.05386ZM26.7923 2.088v1.62133h.1464V2.088h-.1464Zm.0732 1.69455H28v-.14643h-1.1345v.14643Zm1.0613-.07322V4.616h.1464v-.90667h-.1464ZM28 4.54278h-1.1345v.14644H28v-.14644Zm-1.2077.07322v2.66667h.1464V4.616h-.1464Zm0 2.66667c0 .25085.0563.45086.184.584l.1057-.10134c-.0906-.09441-.1433-.24996-.1433-.48266h-.1464Zm.1856.58568c.1364.13332.3487.19154.6185.19154v-.14644c-.2539 0-.4197-.05557-.5161-.1498l-.1024.1047Zm.6185.19154c.157 0 .2976-.01461.421-.04477l-.0348-.14224c-.1094.02673-.2378.04057-.3862.04057v.14644Zm.3304-.11589v.85333h.1464V7.944h-.1464Zm.048.78459c-.1632.05985-.3864.09153-.673.09153v.14643c.2952 0 .5376-.03233.7234-.10047l-.0504-.13749Zm-1.6909-.27161c-.2442-.23882-.3707-.577-.3707-1.02498h-.1464c0 .47647.1354.85651.4148 1.12968l.1023-.1047ZM25.9132 7.432V4.616h-.1464v2.816h.1464ZM25.84 4.54278h-1.0036v.14644H25.84v-.14644Zm-1.0036-.76023h.2836v-.14643h-.2836v.14643Zm.2836 0c.2813 0 .5044-.07451.6539-.23696l-.1077-.09917c-.1123.12199-.2893.1897-.5462.1897v.14643Zm.6538-.23682c.1526-.16494.2267-.37565.2267-.62573h-.1464c0 .21926-.0641.39254-.1878.52627l.1075.09946Zm.2267-.62573v-.832h-.1464v.832h.1464Zm-.0732-.75878h.9382v-.14644h-.9382v.14644ZM11.7057 5.80307c.0787-.56226.3088-1.03973.6905-1.43487l-.1053-.10173c-.4039.41812-.6474.92438-.7303 1.51628l.1451.02032Zm.7109 2.40858c-.4398-.42998-.6851-.99237-.733-1.69292l-.1461.00998c.05.73144.3079 1.32924.7767 1.78764l.1024-.1047Zm-1.7208-1.61472h.9148V6.4505h-.9148v.14643Zm.9374-.87724h-.9374v.14644h.9374v-.14644ZM10.6226 4.616v1.17691h.1464V4.616h-.1464Zm0 1.90772V8.84h.1464V6.52372h-.1464Zm-.91173-1.25676V4.616h-.14644v.65096h.14644Zm0 3.57304V6.52372h-.14644V8.84h.14644Zm15.05963-.09626.0504.12385.1357-.05518-.0504-.12384-.1357.05517Zm2.5313.07638c-.2969 0-.547-.05723-.7532-.16841l-.0695.12889c.2319.12506.5071.18595.8227.18595v-.14643Zm-.7532-.16841a1.17366 1.17366 0 0 1-.2647-.19473l-.1023.1047c.0888.08689.1881.1599.2975.21892l.0695-.12889Zm-1.8524-.09067.0743.1827.1357-.05517-.0743-.18271-.1357.05518ZM10.6226 2.89867v.65066h.1464v-.65066h-.1464Zm0 .65066v.16h.1464v-.16h-.1464Zm0 .16v.608h.1464v-.608h-.1464Zm0 .608V4.616h.1464v-.29867h-.1464Zm-.91173-.608v-.864h-.14644v.864h.14644Zm-.14644 0v.608h.14644v-.608h-.14644Zm0 .608V4.616h.14644v-.29867h-.14644ZM21.7446 1.30492l.9893 2.432.1356-.05517-.9893-2.432-.1356.05517Zm1.3581 3.33867 1.5935 3.91745.1357-.05518-1.5936-3.91745-.1356.05518Zm.0678.04563h1.6659v-.14644h-1.6659v.14644Zm1.6659-1.0531h-2.0347v.14643h2.0347v-.14643ZM7.74598 5.79291v.27735h.14644v-.27735h-.14644Zm0 .27735v2.72707h.14644V6.07026h-.14644Zm1.36572-.35057h-.26395v.14644h.26395v-.14644Zm-.33717.07322v.73081h.14644v-.73081h-.14644Zm.07322.80402h.7899V6.4505h-.7899v.14643Zm.71668-1.32997c0 .25004-.20269.45273-.45273.45273v.14644c.33091 0 .59917-.26826.59917-.59917h-.14644Zm12.75277.56359c.1445 0 .2435-.14564.1903-.28l-.1361.05386c.0151.03825-.0131.07971-.0542.07971v.14643Zm-2.4669-.27894c-.0522.1342.0468.27894.1908.27894v-.14643c-.041 0-.0692-.04121-.0543-.07941l-.1365-.0531Zm1.2652-2.84741c.0192-.04937.089-.04957.1085-.00031l.1361-.05386c-.0684-.17306-.3136-.17238-.3811.00106l.1365.05311Z" mask="url(#a)"/>
</svg>
