<svg xmlns="http://www.w3.org/2000/svg" xml:space="preserve" width="153.67" height="154.24">
  <g>
    <path d="M-52.21205 22.31109 18.87549 39.1854c7.12698 1.69176 14.30321-2.60692 16.1746-9.68886l17.82317-67.44845a1.27554 1.27554 0 0 0-1.23321-1.60141h-74.93038c-5.01931 0-9.90145 1.63833-13.90472 4.66609a56.31447 56.31447 0 0 0-11.84164 12.16436c-2.61155 3.65308-3.97064 8.05328-3.87409 12.5428z" style="stroke:#000;stroke-width:0;stroke-dasharray:none;stroke-linecap:butt;stroke-dashoffset:0;stroke-linejoin:miter;stroke-miterlimit:4;fill:#199df1;fill-rule:nonzero;opacity:1" transform="translate(53.22 39.96)" vector-effect="non-scaling-stroke"/>
    <path d="m-7.47778-49.54752 5.17729.13547c13.19939.34537 24.65151 9.20783 28.29729 21.89843v75.62091a1.4402 1.4402 0 0 1-1.84428 1.38236L-15.44498 37.915c-7.60239-2.22224-12.06571-10.08044-10.08067-17.74818z" style="stroke:#00d0f9;stroke-width:0;stroke-dasharray:none;stroke-linecap:butt;stroke-dashoffset:0;stroke-linejoin:miter;stroke-miterlimit:4;fill:#00d0f9;fill-rule:nonzero;opacity:1" transform="translate(127.55 49.53)" vector-effect="non-scaling-stroke"/>
    <path d="m-35.80508 25.73031 40.08632-.71583C21.59885 24.70524 35.528 10.67519 35.71225-6.6442l.09284-8.72719-41.40067-9.84352c-5.02301-1.19428-10.31575-.29312-14.66051 2.49615-4.34476 2.78927-7.36741 7.22647-8.37253 12.29073z" style="stroke:#00b9f7;stroke-width:0;stroke-dasharray:none;stroke-linecap:butt;stroke-dashoffset:0;stroke-linejoin:miter;stroke-miterlimit:4;fill:#00b9f7;fill-rule:nonzero;opacity:1" transform="translate(118.17 128.49)" vector-effect="non-scaling-stroke"/>
    <path d="m-37.73303-36.44068 61.74945 11.82436c4.62071.88482 8.66316 3.65638 11.15417 7.64746 2.49101 3.99108 3.20492 8.84013 1.96987 13.37979L26.25002 36.44067l-40.48525-1.34951c-12.88756-.42959-23.1351-10.96112-23.21231-23.85561z" style="stroke:#3276f3;stroke-width:0;stroke-dasharray:none;stroke-linecap:butt;stroke-dashoffset:0;stroke-linejoin:miter;stroke-miterlimit:4;fill:#3276f3;fill-rule:nonzero;opacity:1" transform="translate(40.44 115.66)" vector-effect="non-scaling-stroke"/>
  </g>
</svg>
